<svg width="42" height="40" viewBox="0 0 42 40" fill="none" xmlns="http://www.w3.org/2000/svg">
<rect opacity="0.1" width="42" height="40" rx="20" fill="#EB3349"/>
<path d="M13.4902 14.401C13.5163 14.1432 13.418 13.8884 13.2255 13.7149L11.2647 11.3528V11H17.3529L22.0588 21.3206L26.1961 11H32V11.3528L30.3235 12.9602C30.179 13.0704 30.1073 13.2515 30.1373 13.4307V25.2411C30.1073 25.4203 30.179 25.6014 30.3235 25.7115L31.9608 27.3189V27.6718H23.7255V27.3189L25.4216 25.6723C25.5882 25.5057 25.5882 25.4567 25.5882 25.2019V15.6555L20.8725 27.6326H20.2353L14.7451 15.6555V23.6827C14.6993 24.0202 14.8114 24.3599 15.049 24.604L17.2549 27.2797V27.6326H11V27.2797L13.2059 24.604C13.4418 24.3595 13.5473 24.0175 13.4902 23.6827V14.401Z" fill="#EB3349"/>
</svg>
