<svg width="42" height="40" viewBox="0 0 42 40" fill="none" xmlns="http://www.w3.org/2000/svg">
<rect opacity="0.1" width="42" height="40" rx="20" fill="#EB3349"/>
<path d="M29.5 9H13.5C12.1215 9 11 10.1215 11 11.5V27.5C11 28.8785 12.1215 30 13.5 30H29.5C30.8785 30 32 28.8785 32 27.5V11.5C32 10.1215 30.8785 9 29.5 9ZM27.503 18.1615C27.3895 18.172 27.2745 18.179 27.158 18.179C25.8465 18.179 24.694 17.5045 24.0235 16.485C24.0235 19.1595 24.0235 22.2025 24.0235 22.2535C24.0235 24.608 22.1145 26.517 19.76 26.517C17.4055 26.517 15.4965 24.608 15.4965 22.2535C15.4965 19.899 17.4055 17.99 19.76 17.99C19.849 17.99 19.936 17.998 20.0235 18.0035V20.1045C19.936 20.094 19.85 20.078 19.76 20.078C18.558 20.078 17.584 21.052 17.584 22.254C17.584 23.456 18.558 24.43 19.76 24.43C20.962 24.43 22.0235 23.483 22.0235 22.281C22.0235 22.2335 22.0445 12.484 22.0445 12.484H24.0525C24.2415 14.2795 25.691 15.6965 27.503 15.8265V18.1615Z" fill="#EB3349"/>
</svg>
