<svg width="40" height="40" viewBox="0 0 40 40" fill="none" xmlns="http://www.w3.org/2000/svg">
<rect opacity="0.1" width="40" height="40" rx="20" fill="#EB3349"/>
<path d="M29.0332 17.0156C29.7754 16.459 30.4434 15.791 30.9629 15.0117C30.2949 15.3086 29.5156 15.5312 28.7363 15.6055C29.5527 15.123 30.1465 14.3809 30.4434 13.4531C29.7012 13.8984 28.8477 14.2324 27.9941 14.418C27.252 13.6387 26.25 13.1934 25.1367 13.1934C22.9844 13.1934 21.2402 14.9375 21.2402 17.0898C21.2402 17.3867 21.2773 17.6836 21.3516 17.9805C18.123 17.7949 15.2285 16.2363 13.2988 13.8984C12.9648 14.4551 12.7793 15.123 12.7793 15.8652C12.7793 17.2012 13.4473 18.3887 14.5234 19.0938C13.8926 19.0566 13.2617 18.9082 12.7422 18.6113V18.6484C12.7422 20.541 14.0781 22.0996 15.8594 22.4707C15.5625 22.5449 15.1914 22.6191 14.8574 22.6191C14.5977 22.6191 14.375 22.582 14.1152 22.5449C14.5977 24.1035 16.0449 25.2168 17.752 25.2539C16.416 26.293 14.7461 26.9238 12.9277 26.9238C12.5938 26.9238 12.2969 26.8867 12 26.8496C13.707 27.9629 15.748 28.5938 17.9746 28.5938C25.1367 28.5938 29.0332 22.6934 29.0332 17.5352C29.0332 17.3496 29.0332 17.2012 29.0332 17.0156Z" fill="#EB3349"/>
</svg>
