<svg width="1202" height="791" viewBox="0 0 1202 791" fill="none" xmlns="http://www.w3.org/2000/svg">
<path opacity="0.1976" fill-rule="evenodd" clip-rule="evenodd" d="M1032.59 619.664C1240.8 447.547 1259.96 352.938 1072.01 132.134C884.053 -88.6686 378.141 -1.13872 169.927 170.978C-38.288 343.095 -57.448 437.704 130.508 658.508C318.462 879.312 824.373 791.782 1032.59 619.664Z" fill="url(#paint0_radial)"/>
<g clip-path="url(#clip0)">
<path d="M602.88 257.676C530.678 257.676 478.838 303.999 478.838 412.086C478.838 534.584 530.678 567.01 602.88 567.01C675.082 567.01 730.011 531.496 730.011 412.086C730.011 284.441 675.082 257.676 602.88 257.676ZM603.355 526.349C553.346 526.349 527.22 497.01 527.22 412.165C527.22 337.302 554.416 297.823 604.424 297.823C654.433 297.823 681.629 323.755 681.629 412.165C681.629 494.871 653.364 526.349 603.355 526.349Z" fill="#2F2E41"/>
<path d="M435.602 481.57H405.75V393.662C405.75 388.993 403.895 384.515 400.593 381.213C397.292 377.912 392.814 376.057 388.145 376.057H381.15C378.838 376.057 376.548 376.512 374.413 377.397C372.277 378.282 370.336 379.579 368.701 381.213C367.066 382.848 365.769 384.789 364.885 386.925C364 389.061 363.545 391.35 363.545 393.662V481.57H279.341C277.609 481.57 275.906 481.123 274.397 480.271C272.889 479.418 271.627 478.191 270.733 476.707C269.839 475.224 269.343 473.534 269.294 471.803C269.246 470.071 269.645 468.356 270.454 466.825L359.575 298.148C360.686 296.045 361.359 293.739 361.555 291.368C361.75 288.998 361.463 286.613 360.71 284.356C359.958 282.1 358.757 280.019 357.178 278.24C355.6 276.461 353.677 275.02 351.526 274.004L346.265 271.52C342.18 269.591 337.51 269.306 333.221 270.724C328.931 272.143 325.352 275.156 323.222 279.14L214.528 482.473C212.677 485.935 211.708 489.801 211.708 493.727C211.708 496.862 212.326 499.966 213.526 502.862C214.725 505.759 216.484 508.39 218.701 510.607C220.917 512.824 223.549 514.582 226.445 515.782C229.342 516.982 232.446 517.599 235.581 517.599H363.545V573.186C363.545 575.958 364.09 578.702 365.151 581.262C366.211 583.822 367.766 586.149 369.725 588.108C371.685 590.068 374.011 591.622 376.572 592.683C379.132 593.743 381.876 594.289 384.647 594.289H384.647C387.418 594.289 390.163 593.743 392.723 592.683C395.283 591.622 397.609 590.068 399.569 588.108C401.529 586.149 403.083 583.822 404.143 581.262C405.204 578.702 405.75 575.958 405.75 573.186V517.599H435.602C440.38 517.599 444.962 515.701 448.34 512.323C451.719 508.944 453.617 504.362 453.617 499.585C453.617 494.807 451.719 490.225 448.341 486.847C444.962 483.468 440.38 481.57 435.602 481.57Z" fill="#EB3349"/>
<path d="M988.389 481.57H958.536V393.662C958.536 388.993 956.682 384.515 953.38 381.213C950.078 377.912 945.6 376.057 940.931 376.057H933.936C931.624 376.057 929.335 376.512 927.199 377.397C925.063 378.282 923.122 379.579 921.488 381.213C919.853 382.848 918.556 384.789 917.671 386.925C916.787 389.061 916.331 391.35 916.331 393.662V481.57H832.127C830.395 481.57 828.692 481.123 827.184 480.271C825.676 479.418 824.413 478.191 823.519 476.707C822.625 475.224 822.13 473.534 822.081 471.803C822.032 470.071 822.432 468.356 823.241 466.825L912.361 298.148C913.473 296.045 914.146 293.739 914.341 291.368C914.536 288.998 914.249 286.613 913.497 284.356C912.745 282.1 911.543 280.019 909.965 278.24C908.386 276.461 906.464 275.02 904.313 274.004L899.052 271.52C894.967 269.591 890.296 269.306 886.007 270.724C881.718 272.143 878.138 275.156 876.008 279.14L767.314 482.473C765.463 485.935 764.495 489.801 764.495 493.727C764.495 500.058 767.01 506.13 771.487 510.607C775.964 515.084 782.036 517.599 788.367 517.599H916.331V573.186C916.331 578.783 918.554 584.151 922.512 588.108C926.469 592.066 931.837 594.289 937.434 594.289C943.031 594.289 948.398 592.066 952.356 588.108C956.313 584.151 958.536 578.783 958.536 573.186V517.599H988.389C993.167 517.599 997.749 515.701 1001.13 512.323C1004.51 508.944 1006.4 504.362 1006.4 499.585C1006.4 494.807 1004.51 490.225 1001.13 486.847C997.749 483.468 993.167 481.57 988.389 481.57Z" fill="#EB3349"/>
<path d="M443.838 471.276H413.986V383.368C413.986 381.056 413.53 378.767 412.646 376.631C411.761 374.495 410.464 372.554 408.829 370.919C407.194 369.285 405.254 367.988 403.118 367.103C400.982 366.218 398.693 365.763 396.381 365.763H389.386C384.716 365.763 380.238 367.618 376.937 370.919C373.635 374.221 371.78 378.699 371.78 383.368V471.276H287.577C285.844 471.276 284.142 470.828 282.633 469.976C281.125 469.124 279.863 467.897 278.968 466.413C278.074 464.93 277.579 463.24 277.53 461.509C277.481 459.777 277.881 458.062 278.69 456.531L367.811 287.854C368.922 285.751 369.595 283.445 369.79 281.074C369.986 278.704 369.698 276.319 368.946 274.062C368.194 271.806 366.992 269.725 365.414 267.946C363.835 266.167 361.913 264.726 359.762 263.71L354.501 261.226C350.416 259.297 345.746 259.012 341.457 260.43C337.167 261.849 333.587 264.862 331.458 268.846L222.764 472.179C220.913 475.641 219.944 479.507 219.944 483.433V483.433C219.944 489.764 222.459 495.836 226.936 500.313C231.413 504.79 237.485 507.305 243.817 507.305H371.78V562.892C371.78 565.664 372.326 568.408 373.387 570.968C374.447 573.528 376.002 575.855 377.961 577.814C379.921 579.774 382.247 581.328 384.807 582.389C387.368 583.449 390.112 583.995 392.883 583.995H392.883C398.48 583.995 403.847 581.772 407.805 577.814C411.762 573.857 413.986 568.489 413.986 562.892V507.305H443.838C446.204 507.305 448.546 506.839 450.732 505.934C452.918 505.028 454.904 503.702 456.576 502.029C458.249 500.356 459.576 498.37 460.481 496.184C461.387 493.999 461.853 491.656 461.853 489.291V489.291C461.853 486.925 461.387 484.582 460.481 482.397C459.576 480.211 458.249 478.225 456.576 476.552C454.904 474.88 452.918 473.553 450.732 472.647C448.546 471.742 446.204 471.276 443.838 471.276V471.276Z" stroke="#3F3D56" stroke-width="0.840105" stroke-miterlimit="10"/>
<path d="M1003.83 471.276H973.978V383.368C973.978 378.699 972.123 374.221 968.821 370.919C965.52 367.618 961.042 365.763 956.373 365.763H949.378C947.066 365.763 944.776 366.218 942.641 367.103C940.505 367.988 938.564 369.285 936.929 370.919C935.294 372.554 933.997 374.495 933.113 376.631C932.228 378.767 931.773 381.056 931.773 383.368V471.276H847.569C845.837 471.276 844.134 470.828 842.625 469.976C841.117 469.124 839.855 467.897 838.961 466.413C838.067 464.93 837.571 463.24 837.522 461.509C837.474 459.777 837.873 458.062 838.683 456.531L927.803 287.854C928.914 285.751 929.587 283.445 929.783 281.074C929.978 278.704 929.691 276.319 928.938 274.062C928.186 271.806 926.985 269.725 925.406 267.946C923.828 266.167 921.905 264.726 919.754 263.71L914.493 261.226C910.408 259.297 905.738 259.012 901.449 260.43C897.159 261.849 893.58 264.862 891.45 268.846L782.756 472.179C780.905 475.641 779.937 479.507 779.937 483.433C779.937 489.764 782.452 495.836 786.929 500.313C791.405 504.79 797.477 507.305 803.809 507.305H931.773V562.892C931.773 568.489 933.996 573.857 937.953 577.814C941.911 581.772 947.278 583.995 952.875 583.995V583.995C958.472 583.995 963.839 581.772 967.797 577.814C971.754 573.857 973.978 568.489 973.978 562.892V507.305H1003.83C1006.2 507.305 1008.54 506.839 1010.72 505.934C1012.91 505.028 1014.9 503.702 1016.57 502.029C1018.24 500.356 1019.57 498.37 1020.47 496.184C1021.38 493.999 1021.84 491.656 1021.84 489.291V489.291C1021.84 484.513 1019.95 479.931 1016.57 476.552C1013.19 473.174 1008.61 471.276 1003.83 471.276V471.276Z" stroke="#3F3D56" stroke-width="0.840105" stroke-miterlimit="10"/>
<path d="M619.351 248.412C547.149 248.412 495.309 294.734 495.309 402.821C495.309 525.319 547.149 557.745 619.351 557.745C691.553 557.745 746.482 522.231 746.482 402.821C746.481 275.176 691.553 248.412 619.351 248.412ZM619.826 517.084C569.817 517.084 543.69 487.745 543.69 402.9C543.69 328.037 570.886 288.558 620.895 288.558C670.904 288.558 698.1 314.49 698.1 402.9C698.1 485.606 669.834 517.084 619.826 517.084V517.084Z" stroke="#3F3D56" stroke-width="0.840105" stroke-miterlimit="10"/>
<path d="M561.475 143.541C567.461 143.541 572.313 138.689 572.313 132.703C572.313 126.717 567.461 121.865 561.475 121.865C555.489 121.865 550.637 126.717 550.637 132.703C550.637 138.689 555.489 143.541 561.475 143.541Z" fill="#2F2E41"/>
<path d="M587.911 196.147C604.701 196.147 618.311 178.512 618.311 156.759C618.311 135.005 604.701 117.371 587.911 117.371C571.121 117.371 557.511 135.005 557.511 156.759C557.511 178.512 571.121 196.147 587.911 196.147Z" fill="#2F2E41"/>
<path opacity="0.1" d="M587.911 184.251C572.682 184.251 560.069 169.742 557.856 150.811C557.625 152.785 557.51 154.771 557.511 156.759C557.511 178.512 571.121 196.147 587.911 196.147C604.701 196.147 618.311 178.512 618.311 156.759C618.312 154.771 618.197 152.785 617.966 150.811C615.753 169.742 603.14 184.251 587.911 184.251Z" fill="black"/>
<path d="M649.771 272.109C649.118 274.791 646.303 276.94 643.185 278.441C636.631 281.597 628.546 282.539 620.704 282.855C618.704 282.977 616.697 282.94 614.702 282.744C610.837 282.37 607.211 280.704 604.411 278.013C604.211 277.883 604.047 277.704 603.935 277.494C603.823 277.283 603.766 277.047 603.77 276.809C603.773 276.57 603.837 276.336 603.956 276.129C604.074 275.922 604.243 275.748 604.447 275.624C608.622 271.038 615.589 268.226 622.607 266.201C627.929 264.666 637.209 260.69 643.013 261.226C648.635 261.746 650.595 268.721 649.771 272.109Z" fill="#3F3D56"/>
<path opacity="0.1" d="M649.771 272.109C649.118 274.791 646.303 276.94 643.185 278.441C636.631 281.597 628.546 282.539 620.704 282.855C618.704 282.977 616.697 282.94 614.702 282.744C610.837 282.37 607.211 280.704 604.411 278.013C604.211 277.883 604.047 277.704 603.935 277.494C603.823 277.283 603.766 277.047 603.77 276.809C603.773 276.57 603.837 276.336 603.956 276.129C604.074 275.922 604.243 275.748 604.447 275.624C608.622 271.038 615.589 268.226 622.607 266.201C627.929 264.666 637.209 260.69 643.013 261.226C648.635 261.746 650.595 268.721 649.771 272.109Z" fill="black"/>
<path d="M566.434 252.057C564.433 255.979 564.071 260.534 565.427 264.722C566.806 268.878 569.387 272.532 572.844 275.22C581.325 282.018 592.996 282.954 603.865 282.859C613.39 282.776 622.902 282.124 632.349 280.907C635.515 280.626 638.626 279.904 641.591 278.761C645.138 277.226 648.256 274.411 649.518 270.758C650.781 267.106 649.885 262.633 646.886 260.195C644.25 258.053 640.616 257.758 637.226 257.554L617.83 256.389C619.747 254.449 622.298 253.353 624.632 251.943C627.728 250.072 629.785 246.932 632.036 244.101C635.504 239.955 639.278 236.075 643.325 232.493C643.957 236.114 646.248 239.088 648.944 241.586C651.64 244.085 654.747 246.096 657.549 248.475C664.336 254.237 669.223 262.057 676.361 267.378C681.271 266.088 685.862 263.796 689.844 260.647L687.07 255.622C686.838 255.105 686.478 254.655 686.024 254.317C685.239 253.834 684.226 254.083 683.315 253.946C680.878 253.581 679.813 250.767 678.857 248.496C676.232 242.261 671.205 237.424 666.913 232.195C663.744 228.335 660.933 224.195 658.515 219.826C657.073 217.221 655.753 214.508 653.796 212.263C651.839 210.018 649.097 208.253 646.119 208.247C643.487 208.241 641.06 209.577 638.798 210.921C631.907 215.014 625.277 219.531 618.946 224.446C615.633 227.018 612.34 229.735 608.454 231.312C606.817 231.976 605.093 232.43 603.523 233.238C600.773 234.653 598.686 237.048 596.44 239.173C588.427 246.753 577.457 251.665 566.434 252.057Z" fill="#3F3D56"/>
<path d="M606.992 198.103C606.902 200.42 606.409 202.704 605.535 204.852C605.092 205.923 604.433 206.892 603.6 207.698C602.766 208.503 601.775 209.128 600.69 209.534C599.148 209.947 597.531 209.999 595.966 209.687C594.6 209.545 593.285 209.096 592.117 208.376C590.298 207.126 589.391 204.894 589.061 202.711C588.73 200.53 588.878 198.302 588.667 196.105C588.461 194.33 588.123 192.574 587.657 190.85C587.514 190.276 587.369 189.705 587.226 189.134C587.086 188.563 586.949 187.992 586.822 187.421C586.705 186.884 586.597 186.345 586.504 185.803C586.428 185.346 586.359 184.886 586.309 184.423C586.263 183.052 586.034 181.693 585.629 180.381C585.25 179.531 584.774 178.726 584.213 177.984C583.972 177.64 583.739 177.296 583.525 176.939C582.906 176.012 582.618 174.903 582.708 173.791C582.734 173.619 582.775 173.45 582.833 173.286C582.854 173.223 582.878 173.159 582.904 173.098C583.142 173.034 583.36 172.912 583.54 172.744C583.721 172.576 583.857 172.366 583.938 172.134C584.029 171.633 583.986 171.118 583.813 170.64C583.616 169.972 583.346 169.327 583.007 168.718C582.785 168.316 582.032 167.592 582.026 167.132C582.016 166.207 583.824 165.461 584.556 165.097C586.791 163.977 589.284 163.472 591.778 163.632C593.378 163.74 595.112 164.232 595.995 165.572C596.788 166.78 596.682 168.345 597.02 169.749C597.056 169.953 597.142 170.145 597.271 170.307C597.444 170.464 597.661 170.564 597.893 170.592C598.284 170.67 598.686 170.686 599.082 170.64H599.085C599.19 170.632 599.294 170.617 599.397 170.595C600.014 170.481 600.598 170.229 601.105 169.857C601.432 169.77 601.763 169.699 602.096 169.643C602.109 169.642 602.123 169.639 602.136 169.635C603.46 173.815 603.632 178.295 604.716 182.552C605.252 184.669 606.021 186.76 606.13 188.938C606.138 189.033 606.14 189.131 606.143 189.229C606.159 189.93 606.103 190.635 606.133 191.333C606.143 191.647 606.178 191.96 606.238 192.269C606.357 192.765 606.504 193.254 606.68 193.734L606.688 193.757C606.738 193.911 606.785 194.067 606.825 194.223C606.854 194.336 606.881 194.447 606.902 194.561L606.904 194.569C607.1 195.737 607.129 196.927 606.992 198.103Z" fill="#FBBEBE"/>
<path d="M588.439 170.769C597.053 170.769 604.036 163.786 604.036 155.173C604.036 146.559 597.053 139.576 588.439 139.576C579.826 139.576 572.843 146.559 572.843 155.173C572.843 163.786 579.826 170.769 588.439 170.769Z" fill="#FBBEBE"/>
<path d="M687.459 240.151C687.007 235.895 685.495 231.822 683.061 228.302C683.465 230.708 683.87 233.113 684.277 235.517C683.772 235.663 683.235 235.658 682.733 235.504C682.23 235.349 681.784 235.051 681.448 234.647C680.791 233.827 680.289 232.894 679.965 231.895C678.193 227.496 675.876 223.337 673.068 219.515C663.139 218.688 653.324 214.572 644.592 209.774C635.858 204.979 627.685 199.229 619.067 194.23C617.573 193.327 616.016 192.532 614.409 191.851C611.713 190.77 608.686 190.21 606.13 188.938C605.958 188.853 605.786 188.764 605.617 188.671C605.039 188.357 604.492 187.99 603.983 187.574C603.708 187.351 603.447 187.11 603.201 186.855C601.925 185.371 600.914 183.679 600.211 181.854C598.839 178.819 598.35 175.158 596.98 172.123C597.61 171.535 598.317 171.036 599.082 170.64H599.085C599.196 170.582 599.307 170.526 599.42 170.473C599.962 170.218 600.526 170.012 601.104 169.857C601.432 169.77 601.763 169.699 602.096 169.643C602.109 169.642 602.122 169.639 602.135 169.635C603.68 169.384 605.262 169.509 606.748 170C608.921 170.735 610.753 172.202 612.58 173.59C615.547 175.681 618.394 177.938 621.105 180.352C622.612 181.795 623.986 183.381 625.607 184.693C626.953 185.732 628.373 186.673 629.855 187.508C638.623 192.731 647.393 197.954 656.163 203.176C659.132 204.944 662.103 206.713 665.006 208.585C669.415 211.429 673.666 214.511 677.914 217.591C680.417 219.404 682.92 221.219 685.421 223.034C686.242 223.558 686.963 224.224 687.549 225.001C688.068 225.883 688.389 226.867 688.493 227.885C689.121 231.998 688.767 236.201 687.459 240.151Z" fill="#FBBEBE"/>
<path d="M610.859 209.832C609.806 214.551 605.038 217.403 602.545 221.548C599.447 226.692 600.71 232.672 601.873 238.564C599.748 240.396 597.622 242.228 595.495 244.06C594.321 245.067 593.147 246.08 591.884 246.971C590.041 248.205 588.116 249.311 586.121 250.28C584.239 251.248 582.356 252.216 580.474 253.186C578.725 254.169 576.871 254.955 574.947 255.528C571.238 256.479 567.299 255.813 563.63 254.711C563.197 254.597 562.781 254.428 562.393 254.206C562.164 254.069 561.964 253.889 561.806 253.675C561.444 253.026 561.313 252.274 561.433 251.541C561.806 245.366 563.315 239.32 564.819 233.32C565.623 229.72 566.704 226.187 568.052 222.754C569.375 219.812 570.895 216.962 572.602 214.226C574.486 210.782 576.718 207.541 579.264 204.553C580.503 203.403 581.546 202.058 582.351 200.572C583.29 198.431 582.927 195.975 583.118 193.643C583.263 191.892 583.728 190.181 584.49 188.597V188.594C584.897 187.741 585.387 186.93 585.954 186.173C586.211 186.77 586.467 187.367 586.723 187.962C586.893 188.354 587.06 188.744 587.226 189.134C587.442 189.636 587.657 190.136 587.871 190.635C588.487 192.068 589.102 193.5 589.716 194.931C590.38 196.733 591.325 198.419 592.518 199.924C593.063 200.695 593.799 201.312 594.653 201.713C595.508 202.115 596.452 202.288 597.394 202.216C598.335 202.144 599.242 201.829 600.025 201.302C600.808 200.774 601.442 200.053 601.863 199.208C602.751 197.631 603.395 195.927 603.771 194.156C604.293 192 604.365 189.759 603.983 187.574C603.346 183.365 601.556 179.067 600.255 175.157C599.726 173.854 599.42 172.47 599.349 171.065C599.351 170.907 599.367 170.75 599.396 170.595C599.404 170.555 599.412 170.513 599.42 170.473C599.962 170.218 600.526 170.012 601.104 169.857C601.432 169.77 601.762 169.699 602.095 169.643C603.24 175.839 604.386 182.036 605.535 188.232C605.561 188.378 605.59 188.523 605.617 188.671C605.78 189.559 605.947 190.447 606.132 191.333C606.299 192.137 606.478 192.938 606.679 193.733L606.687 193.757C606.756 194.027 606.827 194.294 606.901 194.561L606.904 194.569C607.107 195.298 607.335 196.023 607.591 196.736C609.146 201.037 611.855 205.367 610.859 209.832Z" fill="#EB3349"/>
<path d="M674.156 276.144C674.106 277.053 674.282 277.96 674.668 278.785C675.644 280.569 677.986 280.974 680.013 281.141C691.852 282.114 703.763 281.751 715.521 280.059C716.159 280.016 716.777 279.824 717.328 279.498C719 278.326 717.969 275.47 716.144 274.556C714.318 273.641 712.152 273.862 710.149 273.466C708.16 272.965 706.265 272.143 704.539 271.033C700.477 268.699 696.475 266.266 692.532 263.734C690.184 262.226 687.413 260.617 684.769 261.511C677.607 263.934 674.108 268.418 674.156 276.144Z" fill="#3F3D56"/>
<path d="M586.882 187.09V187.093C586.863 187.204 586.845 187.312 586.821 187.421C586.792 187.601 586.758 187.783 586.723 187.963C586.396 189.641 585.994 191.312 585.531 192.972C584.262 197.559 582.562 202.071 580.876 206.517C576.35 218.44 571.824 230.363 567.296 242.287C566.154 245.29 565.015 248.295 563.717 251.237C563.283 252.218 562.837 253.207 562.393 254.206C560.801 257.783 559.273 261.476 558.766 265.282C558.292 267.788 558.238 270.354 558.604 272.877C559.112 275.373 560.627 277.81 562.998 278.732C564.156 279.184 565.813 279.79 565.496 280.993C565.324 281.653 564.573 281.976 563.899 282.087C563.009 282.229 562.099 282.173 561.233 281.924C560.366 281.674 559.566 281.237 558.887 280.644C557.621 279.52 556.648 277.773 554.964 277.585C553.799 277.458 552.725 278.156 551.657 278.645C547.301 280.636 542.225 279.243 537.649 277.828C538.009 275.975 539.87 274.754 541.718 274.384C543.566 274.011 545.477 274.276 547.362 274.225C547.965 274.257 548.564 274.103 549.077 273.784C549.537 273.362 549.86 272.811 550.002 272.203C551.217 268.606 552.12 264.91 552.701 261.158C553.309 257.238 553.563 253.257 554.43 249.384C555.104 246.363 556.146 243.436 557.039 240.47C558.767 234.364 560.186 228.173 561.29 221.924C561.848 219.327 562.248 216.699 562.488 214.054C562.638 211.86 562.567 209.655 562.778 207.469C563.133 204.625 563.727 201.815 564.552 199.071C565.361 196.076 566.169 193.082 566.976 190.091C568.174 185.663 569.459 181.063 572.493 177.621C573.547 176.41 574.839 175.427 576.288 174.735C577.737 174.043 579.313 173.656 580.918 173.598C581.52 173.597 582.12 173.662 582.708 173.791C582.806 173.815 582.903 173.838 583.001 173.865C583.642 174.032 584.256 174.287 584.828 174.621C585.764 174.026 586.24 174.235 586.861 175.152C587.405 176.123 587.662 177.229 587.601 178.34C587.653 181.274 587.412 184.205 586.882 187.09Z" fill="#FBBEBE"/>
<path d="M587.911 190.595L587.871 190.635L587.657 190.849L585.532 192.972L584.49 188.597L580.919 173.598C581.521 173.597 582.121 173.662 582.709 173.791C582.734 173.619 582.776 173.45 582.833 173.286L583.002 173.865L584.213 177.983L586.505 185.803L586.883 187.09V187.093L587.911 190.595Z" fill="#6C63FF"/>
<path d="M601.397 142.744C601.396 144.133 601.12 145.508 600.587 146.79C600.053 148.072 599.272 149.237 598.289 150.217C597.932 150.574 597.55 150.905 597.146 151.206C595.322 152.581 593.1 153.325 590.815 153.326H578.133C575.331 153.322 572.645 152.206 570.664 150.223C568.684 148.239 567.572 145.552 567.572 142.749C567.572 139.947 568.684 137.259 570.664 135.276C572.645 133.293 575.331 132.176 578.133 132.172H590.815C593.618 132.179 596.304 133.295 598.286 135.276C600.269 137.257 601.387 139.941 601.397 142.744Z" fill="#2F2E41"/>
<path d="M613.289 143.541C619.274 143.541 624.127 138.689 624.127 132.703C624.127 126.717 619.274 121.865 613.289 121.865C607.303 121.865 602.45 126.717 602.45 132.703C602.45 138.689 607.303 143.541 613.289 143.541Z" fill="#2F2E41"/>
<path opacity="0.1" d="M613.023 121.865C612.891 121.865 612.759 121.87 612.627 121.875C615.431 121.977 618.086 123.162 620.033 125.182C621.981 127.201 623.069 129.898 623.069 132.703C623.069 135.509 621.981 138.205 620.033 140.224C618.086 142.244 615.431 143.429 612.627 143.531C612.759 143.536 612.891 143.541 613.023 143.541C615.898 143.541 618.655 142.4 620.687 140.367C622.72 138.334 623.862 135.578 623.862 132.703C623.862 129.829 622.72 127.072 620.687 125.039C618.655 123.007 615.898 121.865 613.023 121.865Z" fill="black"/>
<path opacity="0.1" d="M561.475 121.865C561.608 121.865 561.74 121.87 561.872 121.875C559.068 121.977 556.413 123.162 554.466 125.182C552.518 127.201 551.43 129.898 551.43 132.703C551.43 135.509 552.518 138.205 554.466 140.224C556.413 142.244 559.068 143.429 561.872 143.531C561.74 143.536 561.608 143.541 561.475 143.541C558.602 143.539 555.848 142.396 553.818 140.364C551.787 138.331 550.646 135.576 550.646 132.703C550.646 129.83 551.787 127.075 553.818 125.043C555.848 123.01 558.602 121.867 561.475 121.865Z" fill="black"/>
<path opacity="0.1" d="M597.146 151.206C595.321 152.581 593.099 153.325 590.815 153.326H578.133C575.848 153.325 573.626 152.581 571.802 151.206H597.146Z" fill="black"/>
<path d="M679.044 229.74C679.044 229.74 681.776 237.613 684.277 235.516L682.284 225.225L679.044 229.74Z" fill="#FBBEBE"/>
<path d="M1011.54 469.836C1014.08 470.762 1016.81 471.083 1019.5 470.775C1022.19 470.468 1024.77 469.539 1027.04 468.064C1029.31 466.588 1031.21 464.605 1032.58 462.271C1033.96 459.937 1034.77 457.316 1034.96 454.615C1035.14 451.914 1034.7 449.206 1033.66 446.705C1032.63 444.203 1031.02 441.977 1028.98 440.202C1026.93 438.426 1024.5 437.15 1021.88 436.474C1019.26 435.797 1016.52 435.739 1013.87 436.303L1014.31 445.303L1010.05 437.59C1005.87 439.554 1002.64 443.096 1001.07 447.438C1000.51 448.96 1000.18 450.552 1000.07 452.168C999.797 455.96 1000.77 459.736 1002.84 462.925C1004.91 466.113 1007.97 468.539 1011.54 469.836Z" fill="#57B894"/>
<path d="M1032.61 574.214C1031.1 566.56 1037.62 559.775 1044.05 555.365C1050.48 550.955 1058 546.621 1060.19 539.137C1063.35 528.38 1053.95 518.529 1046.64 510.034C1041.21 503.73 1036.55 496.804 1032.76 489.403C1031.24 486.436 1029.84 483.333 1029.44 480.022C1028.86 475.254 1030.39 470.51 1031.94 465.962C1037.08 450.811 1042.57 435.787 1048.43 420.89" stroke="#3F3D56" stroke-width="0.840105" stroke-miterlimit="10"/>
<path d="M1012.26 467.52C1014.8 468.445 1017.53 468.766 1020.22 468.458C1022.91 468.151 1025.49 467.223 1027.76 465.747C1030.03 464.271 1031.93 462.288 1033.3 459.954C1034.68 457.62 1035.49 455 1035.68 452.298C1035.86 449.597 1035.42 446.889 1034.38 444.388C1033.35 441.886 1031.74 439.66 1029.7 437.885C1027.65 436.109 1025.22 434.833 1022.6 434.157C1019.98 433.48 1017.24 433.422 1014.59 433.987L1015.02 442.986L1010.77 435.273C1006.59 437.237 1003.36 440.779 1001.79 445.122C1001.23 446.643 1000.9 448.235 1000.79 449.851C1000.52 453.643 1001.49 457.419 1003.56 460.608C1005.63 463.796 1008.69 466.222 1012.26 467.52V467.52Z" stroke="#3F3D56" stroke-width="0.840105" stroke-miterlimit="10"/>
<path d="M1030.47 417.782C1031.47 415.026 1033.14 412.566 1035.34 410.629C1037.54 408.691 1040.19 407.338 1043.05 406.695L1044.49 415.25L1047.16 406.265C1050.87 406.32 1054.46 407.551 1057.42 409.781C1060.38 412.01 1062.56 415.123 1063.63 418.67C1064.71 422.216 1064.63 426.013 1063.41 429.512C1062.19 433.011 1059.88 436.031 1056.83 438.135C1053.78 440.24 1050.14 441.321 1046.44 441.222C1042.73 441.122 1039.15 439.848 1036.22 437.584C1033.29 435.319 1031.15 432.18 1030.11 428.621C1029.08 425.062 1029.21 421.266 1030.47 417.782H1030.47Z" fill="#57B894"/>
<path d="M1031.43 414.693C1032.43 411.937 1034.1 409.477 1036.3 407.54C1038.5 405.602 1041.15 404.249 1044.01 403.606L1045.45 412.161L1048.12 403.176C1051.83 403.23 1055.42 404.462 1058.38 406.691C1061.34 408.921 1063.52 412.034 1064.59 415.581C1065.67 419.127 1065.59 422.924 1064.37 426.423C1063.15 429.922 1060.84 432.941 1057.79 435.046C1054.74 437.151 1051.1 438.232 1047.4 438.133C1043.69 438.033 1040.11 436.759 1037.18 434.494C1034.25 432.23 1032.11 429.091 1031.07 425.532C1030.04 421.973 1030.17 418.177 1031.43 414.693H1031.43Z" stroke="#3F3D56" stroke-width="0.840105" stroke-miterlimit="10"/>
<path d="M1043.57 510.207C1047.61 511.671 1052.04 511.599 1056.03 510.004C1060.01 508.41 1063.27 505.404 1065.18 501.56C1067.1 497.716 1067.53 493.303 1066.39 489.162C1065.26 485.02 1062.65 481.441 1059.04 479.104L1056.99 486.01L1055.54 477.353C1055.52 477.346 1055.51 477.341 1055.49 477.336C1053.33 476.552 1051.04 476.2 1048.75 476.302C1046.45 476.404 1044.2 476.956 1042.12 477.929C1040.04 478.901 1038.17 480.274 1036.62 481.969C1035.07 483.663 1033.87 485.647 1033.09 487.806C1032.3 489.965 1031.95 492.258 1032.06 494.552C1032.16 496.847 1032.71 499.099 1033.69 501.179C1034.66 503.259 1036.03 505.127 1037.73 506.676C1039.43 508.226 1041.41 509.425 1043.57 510.207H1043.57Z" fill="#57B894"/>
<path d="M1044.4 507.078C1048.44 508.542 1052.87 508.47 1056.86 506.875C1060.84 505.28 1064.1 502.274 1066.02 498.431C1067.93 494.587 1068.36 490.174 1067.23 486.032C1066.09 481.891 1063.48 478.311 1059.88 475.975L1057.82 482.88L1056.37 474.224C1056.36 474.217 1056.34 474.212 1056.33 474.207C1054.17 473.423 1051.87 473.071 1049.58 473.173C1047.29 473.274 1045.03 473.827 1042.95 474.799C1040.87 475.772 1039 477.144 1037.45 478.839C1035.9 480.534 1034.7 482.518 1033.92 484.677C1033.13 486.836 1032.78 489.128 1032.89 491.423C1032.99 493.718 1033.54 495.969 1034.52 498.05C1035.49 500.13 1036.87 501.998 1038.56 503.547C1040.26 505.096 1042.24 506.296 1044.4 507.078H1044.4Z" stroke="#3F3D56" stroke-width="0.840105" stroke-miterlimit="10"/>
<path d="M1025.37 539.244C1026.06 543.192 1028.09 546.782 1031.12 549.411C1034.14 552.041 1037.98 553.549 1041.99 553.684C1046 553.819 1049.93 552.572 1053.12 550.153C1056.32 547.733 1058.59 544.288 1059.55 540.395C1060.5 536.502 1060.1 532.398 1058.39 528.771C1056.68 525.144 1053.77 522.215 1050.16 520.475C1046.55 518.735 1042.45 518.29 1038.55 519.214C1034.65 520.139 1031.18 522.376 1028.74 525.552L1036.53 537.277L1025.88 531.054C1025.06 533.703 1024.88 536.512 1025.37 539.244Z" fill="#57B894"/>
<path d="M1026.09 536.927C1026.78 540.875 1028.81 544.465 1031.84 547.095C1034.86 549.724 1038.7 551.232 1042.71 551.367C1046.72 551.502 1050.65 550.255 1053.85 547.836C1057.04 545.416 1059.31 541.971 1060.27 538.078C1061.23 534.185 1060.82 530.081 1059.11 526.454C1057.4 522.827 1054.49 519.898 1050.88 518.158C1047.27 516.418 1043.17 515.973 1039.27 516.898C1035.37 517.822 1031.9 520.06 1029.46 523.235L1037.25 534.96L1026.6 528.737C1025.78 531.386 1025.6 534.195 1026.09 536.927V536.927Z" stroke="#3F3D56" stroke-width="0.840105" stroke-miterlimit="10"/>
<path d="M173.235 512.429C174.907 513.037 176.697 513.248 178.465 513.046C180.233 512.844 181.929 512.234 183.421 511.264C184.913 510.295 186.159 508.992 187.061 507.459C187.963 505.925 188.497 504.203 188.62 502.428C188.743 500.653 188.453 498.874 187.771 497.231C187.089 495.588 186.035 494.125 184.692 492.959C183.349 491.792 181.753 490.954 180.03 490.509C178.307 490.065 176.505 490.026 174.765 490.397L175.052 496.31L172.255 491.243C169.509 492.533 167.388 494.86 166.358 497.713C165.992 498.713 165.77 499.759 165.697 500.821C165.521 503.312 166.161 505.793 167.521 507.888C168.881 509.983 170.887 511.577 173.235 512.429Z" fill="#57B894"/>
<path d="M187.077 581.007C186.089 575.978 190.368 571.52 194.595 568.623C198.822 565.725 203.76 562.878 205.202 557.961C207.275 550.893 201.101 544.421 196.296 538.84C192.731 534.697 189.67 530.147 187.176 525.285C186.091 523.375 185.353 521.288 184.994 519.121C184.615 515.989 185.622 512.871 186.636 509.883C190.013 499.929 193.625 490.058 197.47 480.27" stroke="#3F3D56" stroke-width="0.840105" stroke-miterlimit="10"/>
<path d="M173.708 510.907C175.38 511.515 177.17 511.726 178.938 511.524C180.705 511.321 182.402 510.712 183.894 509.742C185.385 508.772 186.631 507.469 187.534 505.936C188.436 504.403 188.97 502.681 189.093 500.906C189.216 499.131 188.925 497.352 188.244 495.709C187.562 494.065 186.508 492.603 185.165 491.436C183.821 490.27 182.225 489.431 180.503 488.987C178.78 488.542 176.978 488.504 175.238 488.875L175.525 494.788L172.728 489.72C169.982 491.01 167.861 493.338 166.831 496.191C166.465 497.19 166.242 498.236 166.17 499.298C165.993 501.79 166.634 504.271 167.994 506.365C169.354 508.46 171.36 510.054 173.708 510.907V510.907Z" stroke="#3F3D56" stroke-width="0.840105" stroke-miterlimit="10"/>
<path d="M185.673 478.228C186.329 476.418 187.43 474.802 188.875 473.529C190.32 472.256 192.062 471.367 193.941 470.944L194.887 476.565L196.641 470.661C199.075 470.697 201.436 471.506 203.381 472.971C205.326 474.436 206.755 476.481 207.462 478.812C208.169 481.142 208.117 483.636 207.314 485.935C206.511 488.234 204.998 490.218 202.993 491.601C200.989 492.984 198.597 493.694 196.163 493.629C193.729 493.563 191.378 492.726 189.451 491.238C187.523 489.75 186.119 487.688 185.44 485.35C184.761 483.011 184.842 480.517 185.673 478.228Z" fill="#57B894"/>
<path d="M186.303 476.199C186.959 474.388 188.06 472.772 189.505 471.499C190.95 470.226 192.692 469.337 194.571 468.914L195.517 474.535L197.27 468.631C199.705 468.668 202.066 469.477 204.011 470.942C205.956 472.406 207.385 474.452 208.092 476.782C208.799 479.112 208.747 481.607 207.944 483.905C207.14 486.204 205.627 488.188 203.623 489.571C201.619 490.954 199.227 491.664 196.793 491.599C194.359 491.534 192.008 490.697 190.081 489.209C188.153 487.72 186.749 485.658 186.069 483.32C185.39 480.981 185.472 478.488 186.303 476.199V476.199Z" stroke="#3F3D56" stroke-width="0.840105" stroke-miterlimit="10"/>
<path d="M194.28 538.954C196.932 539.915 199.844 539.868 202.463 538.82C205.082 537.772 207.224 535.797 208.481 533.272C209.737 530.746 210.02 527.847 209.276 525.126C208.532 522.405 206.813 520.053 204.446 518.518L203.099 523.055L202.144 517.368C202.134 517.363 202.124 517.36 202.114 517.357C200.696 516.841 199.19 516.61 197.682 516.676C196.174 516.743 194.694 517.106 193.327 517.745C191.96 518.383 190.731 519.285 189.713 520.399C188.694 521.513 187.905 522.816 187.39 524.235C186.876 525.654 186.645 527.16 186.713 528.668C186.781 530.175 187.145 531.655 187.785 533.022C188.425 534.389 189.328 535.616 190.442 536.634C191.557 537.652 192.861 538.44 194.28 538.954Z" fill="#57B894"/>
<path d="M194.826 536.898C197.477 537.86 200.39 537.812 203.009 536.764C205.628 535.716 207.77 533.742 209.026 531.216C210.283 528.691 210.566 525.791 209.822 523.07C209.078 520.349 207.359 517.997 204.992 516.462L203.645 520.999L202.689 515.312C202.68 515.307 202.67 515.304 202.66 515.301C201.242 514.786 199.737 514.556 198.23 514.624C196.723 514.691 195.244 515.055 193.877 515.694C191.117 516.984 188.983 519.318 187.944 522.182C186.906 525.046 187.047 528.205 188.337 530.965C189.628 533.725 191.962 535.859 194.826 536.898V536.898Z" stroke="#3F3D56" stroke-width="0.840105" stroke-miterlimit="10"/>
<path d="M182.32 558.031C182.776 560.625 184.11 562.984 186.099 564.711C188.087 566.439 190.609 567.43 193.242 567.519C195.874 567.607 198.458 566.788 200.558 565.198C202.658 563.609 204.148 561.345 204.777 558.787C205.407 556.229 205.138 553.533 204.015 551.15C202.892 548.767 200.984 546.843 198.611 545.7C196.238 544.557 193.544 544.264 190.981 544.871C188.418 545.479 186.142 546.949 184.534 549.035L189.652 556.739L182.659 552.65C182.116 554.391 182 556.236 182.32 558.031Z" fill="#57B894"/>
<path d="M182.793 556.509C183.249 559.103 184.583 561.462 186.571 563.189C188.56 564.916 191.082 565.908 193.715 565.996C196.347 566.085 198.93 565.266 201.03 563.676C203.131 562.086 204.62 559.823 205.25 557.265C205.879 554.707 205.61 552.011 204.488 549.628C203.365 547.245 201.457 545.32 199.084 544.177C196.711 543.034 194.017 542.742 191.454 543.349C188.891 543.956 186.614 545.426 185.006 547.513L190.125 555.216L183.131 551.128C182.589 552.868 182.473 554.714 182.793 556.509V556.509Z" stroke="#3F3D56" stroke-width="0.840105" stroke-miterlimit="10"/>
<path d="M569.712 403.944C577.6 403.944 583.994 395.669 583.994 385.461C583.994 375.254 577.6 366.979 569.712 366.979C561.825 366.979 555.431 375.254 555.431 385.461C555.431 395.669 561.825 403.944 569.712 403.944Z" fill="#2F2E41"/>
<path d="M647.422 404.364C655.31 404.364 661.704 396.089 661.704 385.881C661.704 375.674 655.31 367.399 647.422 367.399C639.535 367.399 633.141 375.674 633.141 385.881C633.141 396.089 639.535 404.364 647.422 404.364Z" fill="#2F2E41"/>
<path d="M636.501 440.488C636.501 448.839 624.84 455.61 610.457 455.61C596.075 455.61 584.414 448.839 584.414 440.488C584.414 433.255 593.16 427.206 604.845 425.727C606.706 425.482 608.581 425.361 610.457 425.366C613.602 425.356 616.738 425.694 619.808 426.374C629.57 428.55 636.501 434.053 636.501 440.488Z" fill="#2F2E41"/>
<path d="M573.073 399.743C580.96 399.743 587.355 391.468 587.355 381.261C587.355 371.053 580.96 362.778 573.073 362.778C565.185 362.778 558.791 371.053 558.791 381.261C558.791 391.468 565.185 399.743 573.073 399.743Z" stroke="#3F3D56" stroke-width="0.840105" stroke-miterlimit="10"/>
<path d="M650.782 400.163C658.669 400.163 665.064 391.888 665.064 381.681C665.064 371.473 658.669 363.198 650.782 363.198C642.894 363.198 636.5 371.473 636.5 381.681C636.5 391.888 642.894 400.163 650.782 400.163Z" stroke="#3F3D56" stroke-width="0.840105" stroke-miterlimit="10"/>
<path d="M613.818 451.409C628.201 451.409 639.861 444.639 639.861 436.287C639.861 427.936 628.201 421.166 613.818 421.166C599.434 421.166 587.774 427.936 587.774 436.287C587.774 444.639 599.434 451.409 613.818 451.409Z" stroke="#3F3D56" stroke-width="0.840105" stroke-miterlimit="10"/>
<path d="M620.119 427.634C620.126 428.691 619.729 429.71 619.01 430.484C618.67 430.855 618.258 431.151 617.798 431.355C617.338 431.558 616.841 431.665 616.339 431.667H607.937C606.902 431.631 605.924 431.186 605.215 430.431C604.507 429.675 604.126 428.67 604.157 427.634C604.153 426.815 604.392 426.013 604.846 425.331C606.705 425.07 608.58 424.941 610.458 424.946C613.606 424.936 616.744 425.297 619.808 426.021C620.016 426.534 620.121 427.082 620.119 427.634Z" fill="white"/>
<path d="M573.073 380.421C575.392 380.421 577.273 378.54 577.273 376.22C577.273 373.9 575.392 372.02 573.073 372.02C570.753 372.02 568.872 373.9 568.872 376.22C568.872 378.54 570.753 380.421 573.073 380.421Z" fill="white"/>
<path d="M651.202 380.421C653.522 380.421 655.403 378.54 655.403 376.22C655.403 373.9 653.522 372.02 651.202 372.02C648.883 372.02 647.002 373.9 647.002 376.22C647.002 378.54 648.883 380.421 651.202 380.421Z" fill="white"/>
<path opacity="0.3" d="M655.403 419.905C657.723 419.905 659.603 418.025 659.603 415.705C659.603 413.385 657.723 411.504 655.403 411.504C653.083 411.504 651.202 413.385 651.202 415.705C651.202 418.025 653.083 419.905 655.403 419.905Z" fill="#6C63FF"/>
<path opacity="0.3" d="M552.91 419.905C555.23 419.905 557.111 418.025 557.111 415.705C557.111 413.385 555.23 411.504 552.91 411.504C550.591 411.504 548.71 413.385 548.71 415.705C548.71 418.025 550.591 419.905 552.91 419.905Z" fill="#6C63FF"/>
</g>
<defs>
<radialGradient id="paint0_radial" cx="0" cy="0" r="1" gradientUnits="userSpaceOnUse" gradientTransform="translate(1443.85 139.755) rotate(-161.555) scale(591.059 846.311)">
<stop stop-color="#FF0000"/>
<stop offset="1" stop-color="#FAD6D6"/>
</radialGradient>
<clipPath id="clip0">
<rect width="902.602" height="490.815" fill="white" transform="translate(165.667 117.371)"/>
</clipPath>
</defs>
</svg>
