<svg width="110" height="24" viewBox="0 0 110 24" fill="none" xmlns="http://www.w3.org/2000/svg">
<path fill-rule="evenodd" clip-rule="evenodd" d="M110 3.23512C110 1.44841 108.552 0 106.765 0C104.978 0 103.53 1.44841 103.53 3.23512C103.53 5.02182 104.978 6.47024 106.765 6.47024C108.552 6.47024 110 5.02182 110 3.23512Z" fill="#EB3349"/>
<path fill-rule="evenodd" clip-rule="evenodd" d="M110 20.4929C110 18.7062 108.552 17.2578 106.765 17.2578C104.978 17.2578 103.53 18.7062 103.53 20.4929C103.53 22.2796 104.978 23.7281 106.765 23.7281C108.552 23.7281 110 22.2796 110 20.4929Z" fill="#EB3349"/>
<path fill-rule="evenodd" clip-rule="evenodd" d="M92.7422 3.23512C92.7422 1.44841 91.2938 0 89.5071 0C87.7204 0 86.272 1.44841 86.272 3.23512C86.272 5.02182 87.7204 6.47024 89.5071 6.47024C91.2938 6.47024 92.7422 5.02182 92.7422 3.23512Z" fill="#EB3349"/>
<path fill-rule="evenodd" clip-rule="evenodd" d="M92.7422 20.4929C92.7422 18.7062 91.2938 17.2578 89.5071 17.2578C87.7204 17.2578 86.272 18.7062 86.272 20.4929C86.272 22.2796 87.7204 23.7281 89.5071 23.7281C91.2938 23.7281 92.7422 22.2796 92.7422 20.4929Z" fill="#EB3349"/>
<path fill-rule="evenodd" clip-rule="evenodd" d="M75.479 3.23512C75.479 1.44841 74.0306 0 72.2439 0C70.4572 0 69.0088 1.44841 69.0088 3.23512C69.0088 5.02182 70.4572 6.47024 72.2439 6.47024C74.0306 6.47024 75.479 5.02182 75.479 3.23512Z" fill="#EB3349"/>
<path fill-rule="evenodd" clip-rule="evenodd" d="M75.479 20.4929C75.479 18.7062 74.0306 17.2578 72.2439 17.2578C70.4572 17.2578 69.0088 18.7062 69.0088 20.4929C69.0088 22.2796 70.4572 23.7281 72.2439 23.7281C74.0306 23.7281 75.479 22.2796 75.479 20.4929Z" fill="#EB3349"/>
<path fill-rule="evenodd" clip-rule="evenodd" d="M58.2323 3.23512C58.2323 1.44841 56.7839 0 54.9972 0C53.2105 0 51.7621 1.44841 51.7621 3.23512C51.7621 5.02182 53.2105 6.47024 54.9972 6.47024C56.7839 6.47024 58.2323 5.02182 58.2323 3.23512Z" fill="#EB3349"/>
<path fill-rule="evenodd" clip-rule="evenodd" d="M58.2323 20.4929C58.2323 18.7062 56.7839 17.2578 54.9972 17.2578C53.2105 17.2578 51.7621 18.7062 51.7621 20.4929C51.7621 22.2796 53.2105 23.7281 54.9972 23.7281C56.7839 23.7281 58.2323 22.2796 58.2323 20.4929Z" fill="#EB3349"/>
<path fill-rule="evenodd" clip-rule="evenodd" d="M40.9746 3.23512C40.9746 1.44841 39.5262 0 37.7395 0C35.9528 0 34.5044 1.44841 34.5044 3.23512C34.5044 5.02182 35.9528 6.47024 37.7395 6.47024C39.5262 6.47024 40.9746 5.02182 40.9746 3.23512Z" fill="#EB3349"/>
<path fill-rule="evenodd" clip-rule="evenodd" d="M40.9746 20.4929C40.9746 18.7062 39.5262 17.2578 37.7395 17.2578C35.9528 17.2578 34.5044 18.7062 34.5044 20.4929C34.5044 22.2796 35.9528 23.7281 37.7395 23.7281C39.5262 23.7281 40.9746 22.2796 40.9746 20.4929Z" fill="#EB3349"/>
<path fill-rule="evenodd" clip-rule="evenodd" d="M23.7279 3.23512C23.7279 1.44841 22.2795 0 20.4928 0C18.7061 0 17.2577 1.44841 17.2577 3.23512C17.2577 5.02182 18.7061 6.47024 20.4928 6.47024C22.2795 6.47024 23.7279 5.02182 23.7279 3.23512Z" fill="#EB3349"/>
<path fill-rule="evenodd" clip-rule="evenodd" d="M23.7279 20.4929C23.7279 18.7062 22.2795 17.2578 20.4928 17.2578C18.7061 17.2578 17.2577 18.7062 17.2577 20.4929C17.2577 22.2796 18.7061 23.7281 20.4928 23.7281C22.2795 23.7281 23.7279 22.2796 23.7279 20.4929Z" fill="#EB3349"/>
<path fill-rule="evenodd" clip-rule="evenodd" d="M6.47024 3.23512C6.47024 1.44841 5.02183 0 3.23512 0C1.44841 0 0 1.44841 0 3.23512C0 5.02183 1.44841 6.47024 3.23512 6.47024C5.02183 6.47024 6.47024 5.02183 6.47024 3.23512Z" fill="#EB3349"/>
<path fill-rule="evenodd" clip-rule="evenodd" d="M6.47024 20.4929C6.47024 18.7062 5.02183 17.2578 3.23512 17.2578C1.44841 17.2578 0 18.7062 0 20.4929C0 22.2796 1.44841 23.7281 3.23512 23.7281C5.02183 23.7281 6.47024 22.2796 6.47024 20.4929Z" fill="#EB3349"/>
</svg>
