<svg width="110" height="76" viewBox="0 0 110 76" fill="none" xmlns="http://www.w3.org/2000/svg">
<path fill-rule="evenodd" clip-rule="evenodd" d="M3.23512 -2.28882e-05C5.02183 -2.28882e-05 6.47024 1.44839 6.47024 3.2351C6.47024 5.0218 5.02183 6.47021 3.23512 6.47021C1.44841 6.47021 0 5.0218 0 3.2351C0 1.44839 1.44841 -2.28882e-05 3.23512 -2.28882e-05ZM23.7279 3.2351C23.7279 1.44839 22.2795 -2.28882e-05 20.4928 -2.28882e-05C18.7061 -2.28882e-05 17.2577 1.44839 17.2577 3.2351C17.2577 5.0218 18.7061 6.47021 20.4928 6.47021C22.2795 6.47021 23.7279 5.0218 23.7279 3.2351ZM37.7395 -2.28882e-05C39.5262 -2.28882e-05 40.9746 1.44839 40.9746 3.2351C40.9746 5.0218 39.5262 6.47021 37.7395 6.47021C35.9528 6.47021 34.5044 5.0218 34.5044 3.2351C34.5044 1.44839 35.9528 -2.28882e-05 37.7395 -2.28882e-05ZM58.2323 3.2351C58.2323 1.44839 56.7839 -2.28882e-05 54.9972 -2.28882e-05C53.2105 -2.28882e-05 51.7621 1.44839 51.7621 3.2351C51.7621 5.0218 53.2105 6.47021 54.9972 6.47021C56.7839 6.47021 58.2323 5.0218 58.2323 3.2351ZM72.2439 -2.28882e-05C74.0306 -2.28882e-05 75.479 1.44839 75.479 3.2351C75.479 5.0218 74.0306 6.47021 72.2439 6.47021C70.4572 6.47021 69.0088 5.0218 69.0088 3.2351C69.0088 1.44839 70.4572 -2.28882e-05 72.2439 -2.28882e-05ZM92.7422 3.2351C92.7422 1.44839 91.2938 -2.28882e-05 89.5071 -2.28882e-05C87.7204 -2.28882e-05 86.272 1.44839 86.272 3.2351C86.272 5.0218 87.7204 6.47021 89.5071 6.47021C91.2938 6.47021 92.7422 5.0218 92.7422 3.2351ZM106.765 69.0088C108.552 69.0088 110 70.4572 110 72.2439C110 74.0306 108.552 75.479 106.765 75.479C104.978 75.479 103.53 74.0306 103.53 72.2439C103.53 70.4572 104.978 69.0088 106.765 69.0088ZM110 54.9866C110 53.1999 108.552 51.7514 106.765 51.7514C104.978 51.7514 103.53 53.1999 103.53 54.9866C103.53 56.7733 104.978 58.2217 106.765 58.2217C108.552 58.2217 110 56.7733 110 54.9866ZM106.765 34.5044C108.552 34.5044 110 35.9528 110 37.7395C110 39.5262 108.552 40.9746 106.765 40.9746C104.978 40.9746 103.53 39.5262 103.53 37.7395C103.53 35.9528 104.978 34.5044 106.765 34.5044ZM110 20.4817C110 18.695 108.552 17.2466 106.765 17.2466C104.978 17.2466 103.53 18.695 103.53 20.4817C103.53 22.2684 104.978 23.7168 106.765 23.7168C108.552 23.7168 110 22.2684 110 20.4817ZM110 3.2351C110 1.44839 108.552 -2.28882e-05 106.765 -2.28882e-05C104.978 -2.28882e-05 103.53 1.44839 103.53 3.2351C103.53 5.0218 104.978 6.47021 106.765 6.47021C108.552 6.47021 110 5.0218 110 3.2351ZM89.5071 17.2466C91.2938 17.2466 92.7422 18.695 92.7422 20.4817C92.7422 22.2684 91.2938 23.7168 89.5071 23.7168C87.7204 23.7168 86.272 22.2684 86.272 20.4817C86.272 18.695 87.7204 17.2466 89.5071 17.2466ZM92.7422 37.7395C92.7422 35.9528 91.2938 34.5044 89.5071 34.5044C87.7204 34.5044 86.272 35.9528 86.272 37.7395C86.272 39.5262 87.7204 40.9746 89.5071 40.9746C91.2938 40.9746 92.7422 39.5262 92.7422 37.7395ZM89.5071 51.7514C91.2938 51.7514 92.7422 53.1999 92.7422 54.9866C92.7422 56.7733 91.2938 58.2217 89.5071 58.2217C87.7204 58.2217 86.272 56.7733 86.272 54.9866C86.272 53.1999 87.7204 51.7514 89.5071 51.7514ZM92.7422 72.2439C92.7422 70.4572 91.2938 69.0088 89.5071 69.0088C87.7204 69.0088 86.272 70.4572 86.272 72.2439C86.272 74.0306 87.7204 75.479 89.5071 75.479C91.2938 75.479 92.7422 74.0306 92.7422 72.2439ZM75.479 20.4817C75.479 18.695 74.0306 17.2466 72.2439 17.2466C70.4572 17.2466 69.0088 18.695 69.0088 20.4817C69.0088 22.2684 70.4572 23.7168 72.2439 23.7168C74.0306 23.7168 75.479 22.2684 75.479 20.4817ZM72.2439 34.5044C74.0306 34.5044 75.479 35.9528 75.479 37.7395C75.479 39.5262 74.0306 40.9746 72.2439 40.9746C70.4572 40.9746 69.0088 39.5262 69.0088 37.7395C69.0088 35.9528 70.4572 34.5044 72.2439 34.5044ZM75.479 54.9866C75.479 53.1999 74.0306 51.7514 72.2439 51.7514C70.4572 51.7514 69.0088 53.1999 69.0088 54.9866C69.0088 56.7733 70.4572 58.2217 72.2439 58.2217C74.0306 58.2217 75.479 56.7733 75.479 54.9866ZM72.2439 69.0088C74.0306 69.0088 75.479 70.4572 75.479 72.2439C75.479 74.0306 74.0306 75.479 72.2439 75.479C70.4572 75.479 69.0088 74.0306 69.0088 72.2439C69.0088 70.4572 70.4572 69.0088 72.2439 69.0088ZM54.9972 17.2466C56.7839 17.2466 58.2323 18.695 58.2323 20.4817C58.2323 22.2684 56.7839 23.7168 54.9972 23.7168C53.2105 23.7168 51.7621 22.2684 51.7621 20.4817C51.7621 18.695 53.2105 17.2466 54.9972 17.2466ZM58.2323 37.7395C58.2323 35.9528 56.7839 34.5044 54.9972 34.5044C53.2105 34.5044 51.7621 35.9528 51.7621 37.7395C51.7621 39.5262 53.2105 40.9746 54.9972 40.9746C56.7839 40.9746 58.2323 39.5262 58.2323 37.7395ZM54.9972 51.7514C56.7839 51.7514 58.2323 53.1999 58.2323 54.9866C58.2323 56.7733 56.7839 58.2217 54.9972 58.2217C53.2105 58.2217 51.7621 56.7733 51.7621 54.9866C51.7621 53.1999 53.2105 51.7514 54.9972 51.7514ZM58.2323 72.2439C58.2323 70.4572 56.7839 69.0088 54.9972 69.0088C53.2105 69.0088 51.7621 70.4572 51.7621 72.2439C51.7621 74.0306 53.2105 75.479 54.9972 75.479C56.7839 75.479 58.2323 74.0306 58.2323 72.2439ZM40.9746 20.4817C40.9746 18.695 39.5262 17.2466 37.7395 17.2466C35.9528 17.2466 34.5044 18.695 34.5044 20.4817C34.5044 22.2684 35.9528 23.7168 37.7395 23.7168C39.5262 23.7168 40.9746 22.2684 40.9746 20.4817ZM37.7395 34.5044C39.5262 34.5044 40.9746 35.9528 40.9746 37.7395C40.9746 39.5262 39.5262 40.9746 37.7395 40.9746C35.9528 40.9746 34.5044 39.5262 34.5044 37.7395C34.5044 35.9528 35.9528 34.5044 37.7395 34.5044ZM40.9746 54.9866C40.9746 53.1999 39.5262 51.7514 37.7395 51.7514C35.9528 51.7514 34.5044 53.1999 34.5044 54.9866C34.5044 56.7733 35.9528 58.2217 37.7395 58.2217C39.5262 58.2217 40.9746 56.7733 40.9746 54.9866ZM37.7395 69.0088C39.5262 69.0088 40.9746 70.4572 40.9746 72.2439C40.9746 74.0306 39.5262 75.479 37.7395 75.479C35.9528 75.479 34.5044 74.0306 34.5044 72.2439C34.5044 70.4572 35.9528 69.0088 37.7395 69.0088ZM20.4928 17.2466C22.2795 17.2466 23.7279 18.695 23.7279 20.4817C23.7279 22.2684 22.2795 23.7168 20.4928 23.7168C18.7061 23.7168 17.2577 22.2684 17.2577 20.4817C17.2577 18.695 18.7061 17.2466 20.4928 17.2466ZM23.7279 37.7395C23.7279 35.9528 22.2795 34.5044 20.4928 34.5044C18.7061 34.5044 17.2577 35.9528 17.2577 37.7395C17.2577 39.5262 18.7061 40.9746 20.4928 40.9746C22.2795 40.9746 23.7279 39.5262 23.7279 37.7395ZM20.4928 51.7514C22.2795 51.7514 23.7279 53.1999 23.7279 54.9866C23.7279 56.7733 22.2795 58.2217 20.4928 58.2217C18.7061 58.2217 17.2577 56.7733 17.2577 54.9866C17.2577 53.1999 18.7061 51.7514 20.4928 51.7514ZM23.7279 72.2439C23.7279 70.4572 22.2795 69.0088 20.4928 69.0088C18.7061 69.0088 17.2577 70.4572 17.2577 72.2439C17.2577 74.0306 18.7061 75.479 20.4928 75.479C22.2795 75.479 23.7279 74.0306 23.7279 72.2439ZM6.47024 20.4817C6.47024 18.695 5.02183 17.2466 3.23512 17.2466C1.44841 17.2466 0 18.695 0 20.4817C0 22.2684 1.44841 23.7168 3.23512 23.7168C5.02183 23.7168 6.47024 22.2684 6.47024 20.4817ZM3.23512 34.5044C5.02183 34.5044 6.47024 35.9528 6.47024 37.7395C6.47024 39.5262 5.02183 40.9746 3.23512 40.9746C1.44841 40.9746 0 39.5262 0 37.7395C0 35.9528 1.44841 34.5044 3.23512 34.5044ZM6.47024 54.9866C6.47024 53.1999 5.02183 51.7514 3.23512 51.7514C1.44841 51.7514 0 53.1999 0 54.9866C0 56.7733 1.44841 58.2217 3.23512 58.2217C5.02183 58.2217 6.47024 56.7733 6.47024 54.9866ZM3.23512 69.0088C5.02183 69.0088 6.47024 70.4572 6.47024 72.2439C6.47024 74.0306 5.02183 75.479 3.23512 75.479C1.44841 75.479 0 74.0306 0 72.2439C0 70.4572 1.44841 69.0088 3.23512 69.0088Z" fill="#EB3349"/>
</svg>
