<svg width="375" height="928" viewBox="0 0 375 928" fill="none" xmlns="http://www.w3.org/2000/svg">
<rect width="375" height="928" fill="#FFEBEB"/>
<mask id="mask0" mask-type="alpha" maskUnits="userSpaceOnUse" x="0" y="0" width="375" height="928">
<rect width="375" height="928" fill="white"/>
</mask>
<g mask="url(#mask0)">
<path opacity="0.9" d="M-198 -32V-32C-6.57629 -11.5045 133.659 157.783 118.175 349.677L71.5118 928" stroke="white" stroke-width="0.90503"/>
<path opacity="0.9" d="M15 -34V-34C206.445 -13.4595 346.686 155.844 331.232 347.767L284.512 928" stroke="white" stroke-width="0.90503"/>
<path fill-rule="evenodd" clip-rule="evenodd" d="M-41.7649 902C-39.9782 902 -38.5298 903.448 -38.5298 905.235C-38.5298 907.022 -39.9782 908.47 -41.7649 908.47C-43.5516 908.47 -45 907.022 -45 905.235C-45 903.448 -43.5516 902 -41.7649 902ZM-21.2721 905.235C-21.2721 903.448 -22.7205 902 -24.5072 902C-26.2939 902 -27.7423 903.448 -27.7423 905.235C-27.7423 907.022 -26.2939 908.47 -24.5072 908.47C-22.7205 908.47 -21.2721 907.022 -21.2721 905.235ZM-7.26049 902C-5.47378 902 -4.02537 903.448 -4.02537 905.235C-4.02537 907.022 -5.47378 908.47 -7.26049 908.47C-9.0472 908.47 -10.4956 907.022 -10.4956 905.235C-10.4956 903.448 -9.0472 902 -7.26049 902ZM13.2323 905.235C13.2323 903.448 11.7839 902 9.9972 902C8.21049 902 6.76208 903.448 6.76208 905.235C6.76208 907.022 8.21049 908.47 9.9972 908.47C11.7839 908.47 13.2323 907.022 13.2323 905.235ZM27.2439 902C29.0306 902 30.479 903.448 30.479 905.235C30.479 907.022 29.0306 908.47 27.2439 908.47C25.4572 908.47 24.0088 907.022 24.0088 905.235C24.0088 903.448 25.4572 902 27.2439 902ZM47.7422 905.235C47.7422 903.448 46.2938 902 44.5071 902C42.7204 902 41.272 903.448 41.272 905.235C41.272 907.022 42.7204 908.47 44.5071 908.47C46.2938 908.47 47.7422 907.022 47.7422 905.235ZM61.7649 971.009C63.5516 971.009 65 972.457 65 974.244C65 976.031 63.5516 977.479 61.7649 977.479C59.9782 977.479 58.5298 976.031 58.5298 974.244C58.5298 972.457 59.9782 971.009 61.7649 971.009ZM65 956.986C65 955.199 63.5516 953.751 61.7649 953.751C59.9782 953.751 58.5298 955.199 58.5298 956.986C58.5298 958.773 59.9782 960.221 61.7649 960.221C63.5516 960.221 65 958.773 65 956.986ZM61.7649 936.504C63.5516 936.504 65 937.953 65 939.74C65 941.526 63.5516 942.975 61.7649 942.975C59.9782 942.975 58.5298 941.526 58.5298 939.74C58.5298 937.953 59.9782 936.504 61.7649 936.504ZM65 922.482C65 920.695 63.5516 919.247 61.7649 919.247C59.9782 919.247 58.5298 920.695 58.5298 922.482C58.5298 924.268 59.9782 925.717 61.7649 925.717C63.5516 925.717 65 924.268 65 922.482ZM65 905.235C65 903.448 63.5516 902 61.7649 902C59.9782 902 58.5298 903.448 58.5298 905.235C58.5298 907.022 59.9782 908.47 61.7649 908.47C63.5516 908.47 65 907.022 65 905.235ZM44.5071 919.247C46.2938 919.247 47.7422 920.695 47.7422 922.482C47.7422 924.268 46.2938 925.717 44.5071 925.717C42.7204 925.717 41.272 924.268 41.272 922.482C41.272 920.695 42.7204 919.247 44.5071 919.247ZM47.7422 939.74C47.7422 937.953 46.2938 936.504 44.5071 936.504C42.7204 936.504 41.272 937.953 41.272 939.74C41.272 941.526 42.7204 942.975 44.5071 942.975C46.2938 942.975 47.7422 941.526 47.7422 939.74ZM44.5071 953.751C46.2938 953.751 47.7422 955.199 47.7422 956.986C47.7422 958.773 46.2938 960.221 44.5071 960.221C42.7204 960.221 41.272 958.773 41.272 956.986C41.272 955.199 42.7204 953.751 44.5071 953.751ZM47.7422 974.244C47.7422 972.457 46.2938 971.009 44.5071 971.009C42.7204 971.009 41.272 972.457 41.272 974.244C41.272 976.031 42.7204 977.479 44.5071 977.479C46.2938 977.479 47.7422 976.031 47.7422 974.244ZM30.479 922.482C30.479 920.695 29.0306 919.247 27.2439 919.247C25.4572 919.247 24.0088 920.695 24.0088 922.482C24.0088 924.268 25.4572 925.717 27.2439 925.717C29.0306 925.717 30.479 924.268 30.479 922.482ZM27.2439 936.504C29.0306 936.504 30.479 937.953 30.479 939.74C30.479 941.526 29.0306 942.975 27.2439 942.975C25.4572 942.975 24.0088 941.526 24.0088 939.74C24.0088 937.953 25.4572 936.504 27.2439 936.504ZM30.479 956.986C30.479 955.199 29.0306 953.751 27.2439 953.751C25.4572 953.751 24.0088 955.199 24.0088 956.986C24.0088 958.773 25.4572 960.221 27.2439 960.221C29.0306 960.221 30.479 958.773 30.479 956.986ZM27.2439 971.009C29.0306 971.009 30.479 972.457 30.479 974.244C30.479 976.031 29.0306 977.479 27.2439 977.479C25.4572 977.479 24.0088 976.031 24.0088 974.244C24.0088 972.457 25.4572 971.009 27.2439 971.009ZM9.9972 919.247C11.7839 919.247 13.2323 920.695 13.2323 922.482C13.2323 924.268 11.7839 925.717 9.9972 925.717C8.21049 925.717 6.76208 924.268 6.76208 922.482C6.76208 920.695 8.21049 919.247 9.9972 919.247ZM13.2323 939.74C13.2323 937.953 11.7839 936.504 9.9972 936.504C8.21049 936.504 6.76208 937.953 6.76208 939.74C6.76208 941.526 8.21049 942.975 9.9972 942.975C11.7839 942.975 13.2323 941.526 13.2323 939.74ZM9.9972 953.751C11.7839 953.751 13.2323 955.199 13.2323 956.986C13.2323 958.773 11.7839 960.221 9.9972 960.221C8.21049 960.221 6.76208 958.773 6.76208 956.986C6.76208 955.199 8.21049 953.751 9.9972 953.751ZM13.2323 974.244C13.2323 972.457 11.7839 971.009 9.9972 971.009C8.21049 971.009 6.76208 972.457 6.76208 974.244C6.76208 976.031 8.21049 977.479 9.9972 977.479C11.7839 977.479 13.2323 976.031 13.2323 974.244ZM-4.02537 922.482C-4.02537 920.695 -5.47378 919.247 -7.26049 919.247C-9.0472 919.247 -10.4956 920.695 -10.4956 922.482C-10.4956 924.268 -9.0472 925.717 -7.26049 925.717C-5.47378 925.717 -4.02537 924.268 -4.02537 922.482ZM-7.26049 936.504C-5.47378 936.504 -4.02537 937.953 -4.02537 939.74C-4.02537 941.526 -5.47378 942.975 -7.26049 942.975C-9.0472 942.975 -10.4956 941.526 -10.4956 939.74C-10.4956 937.953 -9.0472 936.504 -7.26049 936.504ZM-4.02537 956.986C-4.02537 955.199 -5.47378 953.751 -7.26049 953.751C-9.0472 953.751 -10.4956 955.199 -10.4956 956.986C-10.4956 958.773 -9.0472 960.221 -7.26049 960.221C-5.47378 960.221 -4.02537 958.773 -4.02537 956.986ZM-7.26049 971.009C-5.47378 971.009 -4.02537 972.457 -4.02537 974.244C-4.02537 976.031 -5.47378 977.479 -7.26049 977.479C-9.0472 977.479 -10.4956 976.031 -10.4956 974.244C-10.4956 972.457 -9.0472 971.009 -7.26049 971.009ZM-24.5072 919.247C-22.7205 919.247 -21.2721 920.695 -21.2721 922.482C-21.2721 924.268 -22.7205 925.717 -24.5072 925.717C-26.2939 925.717 -27.7423 924.268 -27.7423 922.482C-27.7423 920.695 -26.2939 919.247 -24.5072 919.247ZM-21.2721 939.74C-21.2721 937.953 -22.7205 936.504 -24.5072 936.504C-26.2939 936.504 -27.7423 937.953 -27.7423 939.74C-27.7423 941.526 -26.2939 942.975 -24.5072 942.975C-22.7205 942.975 -21.2721 941.526 -21.2721 939.74ZM-24.5072 953.751C-22.7205 953.751 -21.2721 955.199 -21.2721 956.986C-21.2721 958.773 -22.7205 960.221 -24.5072 960.221C-26.2939 960.221 -27.7423 958.773 -27.7423 956.986C-27.7423 955.199 -26.2939 953.751 -24.5072 953.751ZM-21.2721 974.244C-21.2721 972.457 -22.7205 971.009 -24.5072 971.009C-26.2939 971.009 -27.7423 972.457 -27.7423 974.244C-27.7423 976.031 -26.2939 977.479 -24.5072 977.479C-22.7205 977.479 -21.2721 976.031 -21.2721 974.244ZM-38.5298 922.482C-38.5298 920.695 -39.9782 919.247 -41.7649 919.247C-43.5516 919.247 -45 920.695 -45 922.482C-45 924.268 -43.5516 925.717 -41.7649 925.717C-39.9782 925.717 -38.5298 924.268 -38.5298 922.482ZM-41.7649 936.504C-39.9782 936.504 -38.5298 937.953 -38.5298 939.74C-38.5298 941.526 -39.9782 942.975 -41.7649 942.975C-43.5516 942.975 -45 941.526 -45 939.74C-45 937.953 -43.5516 936.504 -41.7649 936.504ZM-38.5298 956.986C-38.5298 955.199 -39.9782 953.751 -41.7649 953.751C-43.5516 953.751 -45 955.199 -45 956.986C-45 958.773 -43.5516 960.221 -41.7649 960.221C-39.9782 960.221 -38.5298 958.773 -38.5298 956.986ZM-41.7649 971.009C-39.9782 971.009 -38.5298 972.457 -38.5298 974.244C-38.5298 976.031 -39.9782 977.479 -41.7649 977.479C-43.5516 977.479 -45 976.031 -45 974.244C-45 972.457 -43.5516 971.009 -41.7649 971.009Z" fill="#EB3349"/>
</g>
<path fill-rule="evenodd" clip-rule="evenodd" d="M274.235 -32C276.022 -32 277.47 -30.5516 277.47 -28.7649C277.47 -26.9782 276.022 -25.5298 274.235 -25.5298C272.448 -25.5298 271 -26.9782 271 -28.7649C271 -30.5516 272.448 -32 274.235 -32ZM294.728 -28.7649C294.728 -30.5516 293.28 -32 291.493 -32C289.706 -32 288.258 -30.5516 288.258 -28.7649C288.258 -26.9782 289.706 -25.5298 291.493 -25.5298C293.28 -25.5298 294.728 -26.9782 294.728 -28.7649ZM308.74 -32C310.526 -32 311.975 -30.5516 311.975 -28.7649C311.975 -26.9782 310.526 -25.5298 308.74 -25.5298C306.953 -25.5298 305.504 -26.9782 305.504 -28.7649C305.504 -30.5516 306.953 -32 308.74 -32ZM329.232 -28.7649C329.232 -30.5516 327.784 -32 325.997 -32C324.21 -32 322.762 -30.5516 322.762 -28.7649C322.762 -26.9782 324.21 -25.5298 325.997 -25.5298C327.784 -25.5298 329.232 -26.9782 329.232 -28.7649ZM343.244 -32C345.031 -32 346.479 -30.5516 346.479 -28.7649C346.479 -26.9782 345.031 -25.5298 343.244 -25.5298C341.457 -25.5298 340.009 -26.9782 340.009 -28.7649C340.009 -30.5516 341.457 -32 343.244 -32ZM363.742 -28.7649C363.742 -30.5516 362.294 -32 360.507 -32C358.72 -32 357.272 -30.5516 357.272 -28.7649C357.272 -26.9782 358.72 -25.5298 360.507 -25.5298C362.294 -25.5298 363.742 -26.9782 363.742 -28.7649ZM377.765 37.0088C379.552 37.0088 381 38.4572 381 40.2439C381 42.0306 379.552 43.479 377.765 43.479C375.978 43.479 374.53 42.0306 374.53 40.2439C374.53 38.4572 375.978 37.0088 377.765 37.0088ZM381 22.9862C381 21.1995 379.552 19.7511 377.765 19.7511C375.978 19.7511 374.53 21.1995 374.53 22.9862C374.53 24.7729 375.978 26.2213 377.765 26.2213C379.552 26.2213 381 24.7729 381 22.9862ZM377.765 2.50446C379.552 2.50446 381 3.95287 381 5.73957C381 7.52628 379.552 8.97469 377.765 8.97469C375.978 8.97469 374.53 7.52628 374.53 5.73957C374.53 3.95287 375.978 2.50446 377.765 2.50446ZM381 -11.5183C381 -13.305 379.552 -14.7534 377.765 -14.7534C375.978 -14.7534 374.53 -13.305 374.53 -11.5183C374.53 -9.73157 375.978 -8.28316 377.765 -8.28316C379.552 -8.28316 381 -9.73157 381 -11.5183ZM381 -28.7649C381 -30.5516 379.552 -32 377.765 -32C375.978 -32 374.53 -30.5516 374.53 -28.7649C374.53 -26.9782 375.978 -25.5298 377.765 -25.5298C379.552 -25.5298 381 -26.9782 381 -28.7649ZM360.507 -14.7534C362.294 -14.7534 363.742 -13.305 363.742 -11.5183C363.742 -9.73157 362.294 -8.28316 360.507 -8.28316C358.72 -8.28316 357.272 -9.73157 357.272 -11.5183C357.272 -13.305 358.72 -14.7534 360.507 -14.7534ZM363.742 5.73957C363.742 3.95287 362.294 2.50446 360.507 2.50446C358.72 2.50446 357.272 3.95287 357.272 5.73957C357.272 7.52628 358.72 8.97469 360.507 8.97469C362.294 8.97469 363.742 7.52628 363.742 5.73957ZM360.507 19.7511C362.294 19.7511 363.742 21.1995 363.742 22.9862C363.742 24.7729 362.294 26.2213 360.507 26.2213C358.72 26.2213 357.272 24.7729 357.272 22.9862C357.272 21.1995 358.72 19.7511 360.507 19.7511ZM363.742 40.2439C363.742 38.4572 362.294 37.0088 360.507 37.0088C358.72 37.0088 357.272 38.4572 357.272 40.2439C357.272 42.0306 358.72 43.479 360.507 43.479C362.294 43.479 363.742 42.0306 363.742 40.2439ZM346.479 -11.5183C346.479 -13.305 345.031 -14.7534 343.244 -14.7534C341.457 -14.7534 340.009 -13.305 340.009 -11.5183C340.009 -9.73157 341.457 -8.28316 343.244 -8.28316C345.031 -8.28316 346.479 -9.73157 346.479 -11.5183ZM343.244 2.50446C345.031 2.50446 346.479 3.95287 346.479 5.73957C346.479 7.52628 345.031 8.97469 343.244 8.97469C341.457 8.97469 340.009 7.52628 340.009 5.73957C340.009 3.95287 341.457 2.50446 343.244 2.50446ZM346.479 22.9862C346.479 21.1995 345.031 19.7511 343.244 19.7511C341.457 19.7511 340.009 21.1995 340.009 22.9862C340.009 24.7729 341.457 26.2213 343.244 26.2213C345.031 26.2213 346.479 24.7729 346.479 22.9862ZM343.244 37.0088C345.031 37.0088 346.479 38.4572 346.479 40.2439C346.479 42.0306 345.031 43.479 343.244 43.479C341.457 43.479 340.009 42.0306 340.009 40.2439C340.009 38.4572 341.457 37.0088 343.244 37.0088ZM325.997 -14.7534C327.784 -14.7534 329.232 -13.305 329.232 -11.5183C329.232 -9.73157 327.784 -8.28316 325.997 -8.28316C324.21 -8.28316 322.762 -9.73157 322.762 -11.5183C322.762 -13.305 324.21 -14.7534 325.997 -14.7534ZM329.232 5.73957C329.232 3.95287 327.784 2.50446 325.997 2.50446C324.21 2.50446 322.762 3.95287 322.762 5.73957C322.762 7.52628 324.21 8.97469 325.997 8.97469C327.784 8.97469 329.232 7.52628 329.232 5.73957ZM325.997 19.7511C327.784 19.7511 329.232 21.1995 329.232 22.9862C329.232 24.7729 327.784 26.2213 325.997 26.2213C324.21 26.2213 322.762 24.7729 322.762 22.9862C322.762 21.1995 324.21 19.7511 325.997 19.7511ZM329.232 40.2439C329.232 38.4572 327.784 37.0088 325.997 37.0088C324.21 37.0088 322.762 38.4572 322.762 40.2439C322.762 42.0306 324.21 43.479 325.997 43.479C327.784 43.479 329.232 42.0306 329.232 40.2439ZM311.975 -11.5183C311.975 -13.305 310.526 -14.7534 308.74 -14.7534C306.953 -14.7534 305.504 -13.305 305.504 -11.5183C305.504 -9.73157 306.953 -8.28316 308.74 -8.28316C310.526 -8.28316 311.975 -9.73157 311.975 -11.5183ZM308.74 2.50446C310.526 2.50446 311.975 3.95287 311.975 5.73957C311.975 7.52628 310.526 8.97469 308.74 8.97469C306.953 8.97469 305.504 7.52628 305.504 5.73957C305.504 3.95287 306.953 2.50446 308.74 2.50446ZM311.975 22.9862C311.975 21.1995 310.526 19.7511 308.74 19.7511C306.953 19.7511 305.504 21.1995 305.504 22.9862C305.504 24.7729 306.953 26.2213 308.74 26.2213C310.526 26.2213 311.975 24.7729 311.975 22.9862ZM308.74 37.0088C310.526 37.0088 311.975 38.4572 311.975 40.2439C311.975 42.0306 310.526 43.479 308.74 43.479C306.953 43.479 305.504 42.0306 305.504 40.2439C305.504 38.4572 306.953 37.0088 308.74 37.0088ZM291.493 -14.7534C293.28 -14.7534 294.728 -13.305 294.728 -11.5183C294.728 -9.73157 293.28 -8.28316 291.493 -8.28316C289.706 -8.28316 288.258 -9.73157 288.258 -11.5183C288.258 -13.305 289.706 -14.7534 291.493 -14.7534ZM294.728 5.73957C294.728 3.95287 293.28 2.50446 291.493 2.50446C289.706 2.50446 288.258 3.95287 288.258 5.73957C288.258 7.52628 289.706 8.97469 291.493 8.97469C293.28 8.97469 294.728 7.52628 294.728 5.73957ZM291.493 19.7511C293.28 19.7511 294.728 21.1995 294.728 22.9862C294.728 24.7729 293.28 26.2213 291.493 26.2213C289.706 26.2213 288.258 24.7729 288.258 22.9862C288.258 21.1995 289.706 19.7511 291.493 19.7511ZM294.728 40.2439C294.728 38.4572 293.28 37.0088 291.493 37.0088C289.706 37.0088 288.258 38.4572 288.258 40.2439C288.258 42.0306 289.706 43.479 291.493 43.479C293.28 43.479 294.728 42.0306 294.728 40.2439ZM277.47 -11.5183C277.47 -13.305 276.022 -14.7534 274.235 -14.7534C272.448 -14.7534 271 -13.305 271 -11.5183C271 -9.73157 272.448 -8.28316 274.235 -8.28316C276.022 -8.28316 277.47 -9.73157 277.47 -11.5183ZM274.235 2.50446C276.022 2.50446 277.47 3.95287 277.47 5.73957C277.47 7.52628 276.022 8.97469 274.235 8.97469C272.448 8.97469 271 7.52628 271 5.73957C271 3.95287 272.448 2.50446 274.235 2.50446ZM277.47 22.9862C277.47 21.1995 276.022 19.7511 274.235 19.7511C272.448 19.7511 271 21.1995 271 22.9862C271 24.7729 272.448 26.2213 274.235 26.2213C276.022 26.2213 277.47 24.7729 277.47 22.9862ZM274.235 37.0087C276.022 37.0087 277.47 38.4571 277.47 40.2438C277.47 42.0306 276.022 43.479 274.235 43.479C272.448 43.479 271 42.0306 271 40.2438C271 38.4571 272.448 37.0087 274.235 37.0087Z" fill="#EB3349"/>
</svg>
