<svg width="1440" height="786" viewBox="0 0 1440 786" fill="none" xmlns="http://www.w3.org/2000/svg">
<rect width="1440" height="786" fill="#FFEBEB"/>
<mask id="mask0" mask-type="alpha" maskUnits="userSpaceOnUse" x="0" y="0" width="1440" height="786">
<rect width="1440" height="786" fill="white"/>
</mask>
<g mask="url(#mask0)">
<path fill-rule="evenodd" clip-rule="evenodd" d="M1333.24 -11C1335.02 -11 1336.47 -9.55163 1336.47 -7.76492C1336.47 -5.97821 1335.02 -4.5298 1333.24 -4.5298C1331.45 -4.5298 1330 -5.97821 1330 -7.76492C1330 -9.55163 1331.45 -11 1333.24 -11ZM1353.73 -7.76492C1353.73 -9.55163 1352.28 -11 1350.49 -11C1348.71 -11 1347.26 -9.55163 1347.26 -7.76492C1347.26 -5.97821 1348.71 -4.5298 1350.49 -4.5298C1352.28 -4.5298 1353.73 -5.97821 1353.73 -7.76492ZM1367.74 -11C1369.53 -11 1370.97 -9.55163 1370.97 -7.76492C1370.97 -5.97821 1369.53 -4.5298 1367.74 -4.5298C1365.95 -4.5298 1364.5 -5.97821 1364.5 -7.76492C1364.5 -9.55163 1365.95 -11 1367.74 -11ZM1388.23 -7.76492C1388.23 -9.55163 1386.78 -11 1385 -11C1383.21 -11 1381.76 -9.55163 1381.76 -7.76492C1381.76 -5.97821 1383.21 -4.5298 1385 -4.5298C1386.78 -4.5298 1388.23 -5.97821 1388.23 -7.76492ZM1402.24 -11C1404.03 -11 1405.48 -9.55163 1405.48 -7.76492C1405.48 -5.97821 1404.03 -4.5298 1402.24 -4.5298C1400.46 -4.5298 1399.01 -5.97821 1399.01 -7.76492C1399.01 -9.55163 1400.46 -11 1402.24 -11ZM1422.74 -7.76492C1422.74 -9.55163 1421.29 -11 1419.51 -11C1417.72 -11 1416.27 -9.55163 1416.27 -7.76492C1416.27 -5.97821 1417.72 -4.5298 1419.51 -4.5298C1421.29 -4.5298 1422.74 -5.97821 1422.74 -7.76492ZM1436.76 58.0088C1438.55 58.0088 1440 59.4572 1440 61.2439C1440 63.0306 1438.55 64.479 1436.76 64.479C1434.98 64.479 1433.53 63.0306 1433.53 61.2439C1433.53 59.4572 1434.98 58.0088 1436.76 58.0088ZM1440 43.9862C1440 42.1995 1438.55 40.7511 1436.76 40.7511C1434.98 40.7511 1433.53 42.1995 1433.53 43.9862C1433.53 45.7729 1434.98 47.2213 1436.76 47.2213C1438.55 47.2213 1440 45.7729 1440 43.9862ZM1436.76 23.5045C1438.55 23.5045 1440 24.9529 1440 26.7396C1440 28.5263 1438.55 29.9747 1436.76 29.9747C1434.98 29.9747 1433.53 28.5263 1433.53 26.7396C1433.53 24.9529 1434.98 23.5045 1436.76 23.5045ZM1440 9.48172C1440 7.69501 1438.55 6.2466 1436.76 6.2466C1434.98 6.2466 1433.53 7.69501 1433.53 9.48172C1433.53 11.2684 1434.98 12.7168 1436.76 12.7168C1438.55 12.7168 1440 11.2684 1440 9.48172ZM1440 -7.76492C1440 -9.55163 1438.55 -11 1436.76 -11C1434.98 -11 1433.53 -9.55163 1433.53 -7.76492C1433.53 -5.97821 1434.98 -4.5298 1436.76 -4.5298C1438.55 -4.5298 1440 -5.97821 1440 -7.76492ZM1419.51 6.2466C1421.29 6.2466 1422.74 7.69501 1422.74 9.48172C1422.74 11.2684 1421.29 12.7168 1419.51 12.7168C1417.72 12.7168 1416.27 11.2684 1416.27 9.48172C1416.27 7.69501 1417.72 6.2466 1419.51 6.2466ZM1422.74 26.7396C1422.74 24.9529 1421.29 23.5045 1419.51 23.5045C1417.72 23.5045 1416.27 24.9529 1416.27 26.7396C1416.27 28.5263 1417.72 29.9747 1419.51 29.9747C1421.29 29.9747 1422.74 28.5263 1422.74 26.7396ZM1419.51 40.7511C1421.29 40.7511 1422.74 42.1995 1422.74 43.9862C1422.74 45.7729 1421.29 47.2213 1419.51 47.2213C1417.72 47.2213 1416.27 45.7729 1416.27 43.9862C1416.27 42.1995 1417.72 40.7511 1419.51 40.7511ZM1422.74 61.2439C1422.74 59.4572 1421.29 58.0088 1419.51 58.0088C1417.72 58.0088 1416.27 59.4572 1416.27 61.2439C1416.27 63.0306 1417.72 64.479 1419.51 64.479C1421.29 64.479 1422.74 63.0306 1422.74 61.2439ZM1405.48 9.48172C1405.48 7.69501 1404.03 6.2466 1402.24 6.2466C1400.46 6.2466 1399.01 7.69501 1399.01 9.48172C1399.01 11.2684 1400.46 12.7168 1402.24 12.7168C1404.03 12.7168 1405.48 11.2684 1405.48 9.48172ZM1402.24 23.5045C1404.03 23.5045 1405.48 24.9529 1405.48 26.7396C1405.48 28.5263 1404.03 29.9747 1402.24 29.9747C1400.46 29.9747 1399.01 28.5263 1399.01 26.7396C1399.01 24.9529 1400.46 23.5045 1402.24 23.5045ZM1405.48 43.9862C1405.48 42.1995 1404.03 40.7511 1402.24 40.7511C1400.46 40.7511 1399.01 42.1995 1399.01 43.9862C1399.01 45.7729 1400.46 47.2213 1402.24 47.2213C1404.03 47.2213 1405.48 45.7729 1405.48 43.9862ZM1402.24 58.0088C1404.03 58.0088 1405.48 59.4572 1405.48 61.2439C1405.48 63.0306 1404.03 64.479 1402.24 64.479C1400.46 64.479 1399.01 63.0306 1399.01 61.2439C1399.01 59.4572 1400.46 58.0088 1402.24 58.0088ZM1385 6.2466C1386.78 6.2466 1388.23 7.69501 1388.23 9.48172C1388.23 11.2684 1386.78 12.7168 1385 12.7168C1383.21 12.7168 1381.76 11.2684 1381.76 9.48172C1381.76 7.69501 1383.21 6.2466 1385 6.2466ZM1388.23 26.7396C1388.23 24.9529 1386.78 23.5045 1385 23.5045C1383.21 23.5045 1381.76 24.9529 1381.76 26.7396C1381.76 28.5263 1383.21 29.9747 1385 29.9747C1386.78 29.9747 1388.23 28.5263 1388.23 26.7396ZM1385 40.7511C1386.78 40.7511 1388.23 42.1995 1388.23 43.9862C1388.23 45.7729 1386.78 47.2213 1385 47.2213C1383.21 47.2213 1381.76 45.7729 1381.76 43.9862C1381.76 42.1995 1383.21 40.7511 1385 40.7511ZM1388.23 61.2439C1388.23 59.4572 1386.78 58.0088 1385 58.0088C1383.21 58.0088 1381.76 59.4572 1381.76 61.2439C1381.76 63.0306 1383.21 64.479 1385 64.479C1386.78 64.479 1388.23 63.0306 1388.23 61.2439ZM1370.97 9.48172C1370.97 7.69501 1369.53 6.2466 1367.74 6.2466C1365.95 6.2466 1364.5 7.69501 1364.5 9.48172C1364.5 11.2684 1365.95 12.7168 1367.74 12.7168C1369.53 12.7168 1370.97 11.2684 1370.97 9.48172ZM1367.74 23.5045C1369.53 23.5045 1370.97 24.9529 1370.97 26.7396C1370.97 28.5263 1369.53 29.9747 1367.74 29.9747C1365.95 29.9747 1364.5 28.5263 1364.5 26.7396C1364.5 24.9529 1365.95 23.5045 1367.74 23.5045ZM1370.97 43.9862C1370.97 42.1995 1369.53 40.7511 1367.74 40.7511C1365.95 40.7511 1364.5 42.1995 1364.5 43.9862C1364.5 45.7729 1365.95 47.2213 1367.74 47.2213C1369.53 47.2213 1370.97 45.7729 1370.97 43.9862ZM1367.74 58.0088C1369.53 58.0088 1370.97 59.4572 1370.97 61.2439C1370.97 63.0306 1369.53 64.479 1367.74 64.479C1365.95 64.479 1364.5 63.0306 1364.5 61.2439C1364.5 59.4572 1365.95 58.0088 1367.74 58.0088ZM1350.49 6.2466C1352.28 6.2466 1353.73 7.69501 1353.73 9.48172C1353.73 11.2684 1352.28 12.7168 1350.49 12.7168C1348.71 12.7168 1347.26 11.2684 1347.26 9.48172C1347.26 7.69501 1348.71 6.2466 1350.49 6.2466ZM1353.73 26.7396C1353.73 24.9529 1352.28 23.5045 1350.49 23.5045C1348.71 23.5045 1347.26 24.9529 1347.26 26.7396C1347.26 28.5263 1348.71 29.9747 1350.49 29.9747C1352.28 29.9747 1353.73 28.5263 1353.73 26.7396ZM1350.49 40.7511C1352.28 40.7511 1353.73 42.1995 1353.73 43.9862C1353.73 45.7729 1352.28 47.2213 1350.49 47.2213C1348.71 47.2213 1347.26 45.7729 1347.26 43.9862C1347.26 42.1995 1348.71 40.7511 1350.49 40.7511ZM1353.73 61.2439C1353.73 59.4572 1352.28 58.0088 1350.49 58.0088C1348.71 58.0088 1347.26 59.4572 1347.26 61.2439C1347.26 63.0306 1348.71 64.479 1350.49 64.479C1352.28 64.479 1353.73 63.0306 1353.73 61.2439ZM1336.47 9.48172C1336.47 7.69501 1335.02 6.2466 1333.24 6.2466C1331.45 6.2466 1330 7.69501 1330 9.48172C1330 11.2684 1331.45 12.7168 1333.24 12.7168C1335.02 12.7168 1336.47 11.2684 1336.47 9.48172ZM1333.24 23.5045C1335.02 23.5045 1336.47 24.9529 1336.47 26.7396C1336.47 28.5263 1335.02 29.9747 1333.24 29.9747C1331.45 29.9747 1330 28.5263 1330 26.7396C1330 24.9529 1331.45 23.5045 1333.24 23.5045ZM1336.47 43.9862C1336.47 42.1995 1335.02 40.7511 1333.24 40.7511C1331.45 40.7511 1330 42.1995 1330 43.9862C1330 45.7729 1331.45 47.2213 1333.24 47.2213C1335.02 47.2213 1336.47 45.7729 1336.47 43.9862ZM1333.24 58.0087C1335.02 58.0087 1336.47 59.4571 1336.47 61.2438C1336.47 63.0306 1335.02 64.479 1333.24 64.479C1331.45 64.479 1330 63.0306 1330 61.2438C1330 59.4571 1331.45 58.0087 1333.24 58.0087Z" fill="#EB3349"/>
<path fill-rule="evenodd" clip-rule="evenodd" d="M172.235 748C174.022 748 175.47 749.448 175.47 751.235C175.47 753.022 174.022 754.47 172.235 754.47C170.448 754.47 169 753.022 169 751.235C169 749.448 170.448 748 172.235 748ZM192.728 751.235C192.728 749.448 191.28 748 189.493 748C187.706 748 186.258 749.448 186.258 751.235C186.258 753.022 187.706 754.47 189.493 754.47C191.28 754.47 192.728 753.022 192.728 751.235ZM206.74 748C208.526 748 209.975 749.448 209.975 751.235C209.975 753.022 208.526 754.47 206.74 754.47C204.953 754.47 203.504 753.022 203.504 751.235C203.504 749.448 204.953 748 206.74 748ZM227.232 751.235C227.232 749.448 225.784 748 223.997 748C222.21 748 220.762 749.448 220.762 751.235C220.762 753.022 222.21 754.47 223.997 754.47C225.784 754.47 227.232 753.022 227.232 751.235ZM241.244 748C243.031 748 244.479 749.448 244.479 751.235C244.479 753.022 243.031 754.47 241.244 754.47C239.457 754.47 238.009 753.022 238.009 751.235C238.009 749.448 239.457 748 241.244 748ZM261.742 751.235C261.742 749.448 260.294 748 258.507 748C256.72 748 255.272 749.448 255.272 751.235C255.272 753.022 256.72 754.47 258.507 754.47C260.294 754.47 261.742 753.022 261.742 751.235ZM275.765 817.009C277.552 817.009 279 818.457 279 820.244C279 822.031 277.552 823.479 275.765 823.479C273.978 823.479 272.53 822.031 272.53 820.244C272.53 818.457 273.978 817.009 275.765 817.009ZM279 802.986C279 801.199 277.552 799.751 275.765 799.751C273.978 799.751 272.53 801.199 272.53 802.986C272.53 804.773 273.978 806.221 275.765 806.221C277.552 806.221 279 804.773 279 802.986ZM275.765 782.504C277.552 782.504 279 783.953 279 785.74C279 787.526 277.552 788.975 275.765 788.975C273.978 788.975 272.53 787.526 272.53 785.74C272.53 783.953 273.978 782.504 275.765 782.504ZM279 768.482C279 766.695 277.552 765.247 275.765 765.247C273.978 765.247 272.53 766.695 272.53 768.482C272.53 770.268 273.978 771.717 275.765 771.717C277.552 771.717 279 770.268 279 768.482ZM279 751.235C279 749.448 277.552 748 275.765 748C273.978 748 272.53 749.448 272.53 751.235C272.53 753.022 273.978 754.47 275.765 754.47C277.552 754.47 279 753.022 279 751.235ZM258.507 765.247C260.294 765.247 261.742 766.695 261.742 768.482C261.742 770.268 260.294 771.717 258.507 771.717C256.72 771.717 255.272 770.268 255.272 768.482C255.272 766.695 256.72 765.247 258.507 765.247ZM261.742 785.74C261.742 783.953 260.294 782.504 258.507 782.504C256.72 782.504 255.272 783.953 255.272 785.74C255.272 787.526 256.72 788.975 258.507 788.975C260.294 788.975 261.742 787.526 261.742 785.74ZM258.507 799.751C260.294 799.751 261.742 801.199 261.742 802.986C261.742 804.773 260.294 806.221 258.507 806.221C256.72 806.221 255.272 804.773 255.272 802.986C255.272 801.199 256.72 799.751 258.507 799.751ZM261.742 820.244C261.742 818.457 260.294 817.009 258.507 817.009C256.72 817.009 255.272 818.457 255.272 820.244C255.272 822.031 256.72 823.479 258.507 823.479C260.294 823.479 261.742 822.031 261.742 820.244ZM244.479 768.482C244.479 766.695 243.031 765.247 241.244 765.247C239.457 765.247 238.009 766.695 238.009 768.482C238.009 770.268 239.457 771.717 241.244 771.717C243.031 771.717 244.479 770.268 244.479 768.482ZM241.244 782.504C243.031 782.504 244.479 783.953 244.479 785.74C244.479 787.526 243.031 788.975 241.244 788.975C239.457 788.975 238.009 787.526 238.009 785.74C238.009 783.953 239.457 782.504 241.244 782.504ZM244.479 802.986C244.479 801.199 243.031 799.751 241.244 799.751C239.457 799.751 238.009 801.199 238.009 802.986C238.009 804.773 239.457 806.221 241.244 806.221C243.031 806.221 244.479 804.773 244.479 802.986ZM241.244 817.009C243.031 817.009 244.479 818.457 244.479 820.244C244.479 822.031 243.031 823.479 241.244 823.479C239.457 823.479 238.009 822.031 238.009 820.244C238.009 818.457 239.457 817.009 241.244 817.009ZM223.997 765.247C225.784 765.247 227.232 766.695 227.232 768.482C227.232 770.268 225.784 771.717 223.997 771.717C222.21 771.717 220.762 770.268 220.762 768.482C220.762 766.695 222.21 765.247 223.997 765.247ZM227.232 785.74C227.232 783.953 225.784 782.504 223.997 782.504C222.21 782.504 220.762 783.953 220.762 785.74C220.762 787.526 222.21 788.975 223.997 788.975C225.784 788.975 227.232 787.526 227.232 785.74ZM223.997 799.751C225.784 799.751 227.232 801.199 227.232 802.986C227.232 804.773 225.784 806.221 223.997 806.221C222.21 806.221 220.762 804.773 220.762 802.986C220.762 801.199 222.21 799.751 223.997 799.751ZM227.232 820.244C227.232 818.457 225.784 817.009 223.997 817.009C222.21 817.009 220.762 818.457 220.762 820.244C220.762 822.031 222.21 823.479 223.997 823.479C225.784 823.479 227.232 822.031 227.232 820.244ZM209.975 768.482C209.975 766.695 208.526 765.247 206.74 765.247C204.953 765.247 203.504 766.695 203.504 768.482C203.504 770.268 204.953 771.717 206.74 771.717C208.526 771.717 209.975 770.268 209.975 768.482ZM206.74 782.504C208.526 782.504 209.975 783.953 209.975 785.74C209.975 787.526 208.526 788.975 206.74 788.975C204.953 788.975 203.504 787.526 203.504 785.74C203.504 783.953 204.953 782.504 206.74 782.504ZM209.975 802.986C209.975 801.199 208.526 799.751 206.74 799.751C204.953 799.751 203.504 801.199 203.504 802.986C203.504 804.773 204.953 806.221 206.74 806.221C208.526 806.221 209.975 804.773 209.975 802.986ZM206.74 817.009C208.526 817.009 209.975 818.457 209.975 820.244C209.975 822.031 208.526 823.479 206.74 823.479C204.953 823.479 203.504 822.031 203.504 820.244C203.504 818.457 204.953 817.009 206.74 817.009ZM189.493 765.247C191.28 765.247 192.728 766.695 192.728 768.482C192.728 770.268 191.28 771.717 189.493 771.717C187.706 771.717 186.258 770.268 186.258 768.482C186.258 766.695 187.706 765.247 189.493 765.247ZM192.728 785.74C192.728 783.953 191.28 782.504 189.493 782.504C187.706 782.504 186.258 783.953 186.258 785.74C186.258 787.526 187.706 788.975 189.493 788.975C191.28 788.975 192.728 787.526 192.728 785.74ZM189.493 799.751C191.28 799.751 192.728 801.199 192.728 802.986C192.728 804.773 191.28 806.221 189.493 806.221C187.706 806.221 186.258 804.773 186.258 802.986C186.258 801.199 187.706 799.751 189.493 799.751ZM192.728 820.244C192.728 818.457 191.28 817.009 189.493 817.009C187.706 817.009 186.258 818.457 186.258 820.244C186.258 822.031 187.706 823.479 189.493 823.479C191.28 823.479 192.728 822.031 192.728 820.244ZM175.47 768.482C175.47 766.695 174.022 765.247 172.235 765.247C170.448 765.247 169 766.695 169 768.482C169 770.268 170.448 771.717 172.235 771.717C174.022 771.717 175.47 770.268 175.47 768.482ZM172.235 782.504C174.022 782.504 175.47 783.953 175.47 785.74C175.47 787.526 174.022 788.975 172.235 788.975C170.448 788.975 169 787.526 169 785.74C169 783.953 170.448 782.504 172.235 782.504ZM175.47 802.986C175.47 801.199 174.022 799.751 172.235 799.751C170.448 799.751 169 801.199 169 802.986C169 804.773 170.448 806.221 172.235 806.221C174.022 806.221 175.47 804.773 175.47 802.986ZM172.235 817.009C174.022 817.009 175.47 818.457 175.47 820.244C175.47 822.031 174.022 823.479 172.235 823.479C170.448 823.479 169 822.031 169 820.244C169 818.457 170.448 817.009 172.235 817.009Z" fill="#EB3349"/>
<path opacity="0.9" d="M1106 -5.63623V-5.63623C1295.53 11.2147 1435 179.302 1416.6 368.687L1375.51 791.546" stroke="white" stroke-width="0.90503"/>
<path opacity="0.9" d="M389 1V1C578.963 17.7004 718.779 186.22 700.13 376.001L659.295 791.546" stroke="white" stroke-width="0.90503"/>
<path opacity="0.9" d="M-10 1V1C179.963 17.7004 319.779 186.22 301.13 376.001L260.295 791.546" stroke="white" stroke-width="0.90503"/>
<path opacity="0.9" d="M769 1V1C958.963 17.7004 1098.78 186.22 1080.13 376.001L1039.3 791.546" stroke="white" stroke-width="0.90503"/>
</g>
</svg>
