<svg width="131" height="67" viewBox="0 0 131 67" fill="none" xmlns="http://www.w3.org/2000/svg">
<path fill-rule="evenodd" clip-rule="evenodd" d="M0.00505183 45.4534V40.7931C0.00187412 40.7569 0.00187412 40.7205 0.00505183 40.6843V39.774V33.4981C0.000319494 33.4578 0.000319494 33.4172 0.00505183 33.3769V28.7166C0.00229682 28.6079 0.0291452 28.5005 0.0827242 28.4059C0.121367 28.3385 0.172945 28.2793 0.234504 28.2319C0.296063 28.1844 0.366388 28.1496 0.441442 28.1294C0.516496 28.1092 0.594807 28.104 0.671871 28.1141C0.748934 28.1242 0.823235 28.1495 0.890514 28.1884L8.18239 32.3983L8.4123 32.5287C8.44997 32.542 8.48636 32.5587 8.52105 32.5785L12.3736 34.803C12.4232 34.8264 12.4692 34.8567 12.5103 34.8931L13.3989 35.4057L32.6616 46.5315C32.5599 45.5497 32.3515 44.5819 32.0402 43.6452C31.7238 42.7073 31.3072 41.8063 30.7975 40.9577C30.333 40.1822 29.794 39.4538 29.1881 38.7829C28.5826 38.1117 27.9124 37.5019 27.1873 36.9623C27.1294 36.92 27.0799 36.8673 27.0412 36.8069L26.7647 36.6454L26.6373 36.5739L26.6032 36.5522L26.3546 36.3906L26.1154 36.2415L25.8513 36.083L25.5934 35.937L25.2113 35.7288C25.1595 35.7135 25.1095 35.6926 25.0622 35.6667L25.0062 35.6325L24.8664 35.5518H24.8509L24.8229 35.5362L14.5329 29.5958L14.4583 29.5523L13.9768 29.2727L10.584 27.3123L10.4908 27.2595L10.4566 27.2408L5.24328 24.2333L5.2091 24.2116H5.19045L0.343702 21.4154C0.243161 21.3661 0.15844 21.2896 0.0991367 21.1946C0.0398331 21.0996 0.00831627 20.9899 0.00815702 20.8779V14.0272C0.00356316 13.9869 0.00356316 13.9463 0.00815702 13.906V9.46316C-0.00271901 9.40463 -0.00271901 9.34459 0.00815702 9.28607V0.605402C0.00502937 0.496269 0.033047 0.388502 0.0889346 0.294712C0.1681 0.158819 0.297975 0.0599078 0.450023 0.0197113C0.60207 -0.0204852 0.763854 0.00131981 0.899834 0.0803359L4.9388 2.40741C4.97225 2.42554 5.00352 2.44743 5.03201 2.47265L5.23085 2.5876L10.438 5.59507H10.4566L11.2116 6.03626C11.2572 6.04958 11.301 6.06836 11.3421 6.09218L15.3811 8.41614C15.4753 8.46682 15.554 8.54215 15.6087 8.63409C15.6634 8.72603 15.6921 8.8311 15.6918 8.93809V17.1341C15.6968 17.2489 15.6699 17.3629 15.6141 17.4634C15.5349 17.5993 15.405 17.6982 15.253 17.7384C15.1009 17.7786 14.9392 17.7568 14.8032 17.6778L13.5977 16.9849C13.5547 16.9613 13.515 16.9321 13.4796 16.898L12.5911 16.4257L10.8077 15.3942C10.7042 15.3467 10.6163 15.2706 10.5547 15.1748C10.493 15.079 10.4601 14.9676 10.4598 14.8536V12.1631C10.4582 12.1424 10.4582 12.1216 10.4598 12.1009V11.6193L5.23085 8.59944V18.1749L11.5596 21.8286C11.6106 21.8538 11.6577 21.8862 11.6994 21.9249L12.5818 22.4344L27.8801 31.2642C30.923 32.8876 33.4688 35.3056 35.2466 38.261C37.0139 41.2068 37.9461 44.5782 37.9433 48.0135C37.9433 48.5945 37.9154 49.1817 37.8594 49.7782C37.8035 50.3747 37.7259 50.9464 37.6202 51.5088C37.5363 51.9748 37.4338 52.4408 37.3095 52.8696C37.1853 53.2983 37.0548 53.7737 36.9056 54.2024C36.8936 54.2396 36.8769 54.2751 36.8559 54.3081C36.817 54.3756 36.7651 54.4348 36.7033 54.4823C36.6414 54.5298 36.5709 54.5647 36.4955 54.5849C36.4202 54.6051 36.3417 54.6102 36.2644 54.6C36.1871 54.5899 36.1125 54.5646 36.045 54.5256L24.4812 47.8488L11.426 40.3115L11.3949 40.2929L5.22774 36.7324V42.7691L5.58814 42.9741C5.6255 42.9922 5.6609 43.014 5.69377 43.0394L6.06349 43.2537L29.5454 56.8122L29.5796 56.8309L29.9804 57.0608L30.027 57.0856L33.5347 59.1113C33.5617 59.1271 33.5877 59.1448 33.6123 59.1641C33.7341 59.2638 33.8116 59.4076 33.8279 59.5641C33.8442 59.7206 33.798 59.8773 33.6993 59.9999C32.8455 61.0463 31.8832 61.9992 30.8286 62.8427C28.6328 64.6054 26.07 65.8539 23.3285 66.4964C19.5769 67.3785 15.6457 67.097 12.058 65.6895C8.47037 64.2819 5.3965 61.8151 3.24554 58.6173C2.17058 57.0407 1.34093 55.3102 0.784881 53.4847C0.761261 53.4081 0.75376 53.3274 0.76285 53.2478C0.77194 53.1681 0.797424 53.0912 0.837697 53.0218C0.87638 52.954 0.928061 52.8945 0.98978 52.8467C1.0515 52.7989 1.12204 52.7637 1.19737 52.7433C1.2727 52.7228 1.35133 52.7173 1.42876 52.7273C1.50619 52.7372 1.5809 52.7624 1.6486 52.8012L8.02705 56.486C8.09088 56.5222 8.14685 56.5708 8.19172 56.6289C8.83384 57.4322 9.56326 58.1616 10.3665 58.8037C11.1641 59.4438 12.0312 59.992 12.9515 60.438C14.8241 61.3495 16.8806 61.8204 18.9633 61.8143C19.501 61.8144 20.0383 61.7844 20.5727 61.7242C21.1036 61.6608 21.6306 61.5674 22.151 61.4446C22.6711 61.3213 23.1836 61.1677 23.6858 60.9848C24.189 60.801 24.6808 60.5873 25.1585 60.3448L14.7659 54.3205C14.74 54.3079 14.7151 54.2933 14.6913 54.277L14.3807 54.0906L14.3465 54.072L0.349917 45.994C0.249147 45.945 0.164222 45.8686 0.104878 45.7735C0.045533 45.6784 0.0141679 45.5686 0.0143721 45.4565L0.00505183 45.4534Z" fill="url(#paint0_linear)"/>
<path fill-rule="evenodd" clip-rule="evenodd" d="M66.9269 34.3139C67.4801 33.9912 67.9408 33.5314 68.2644 32.9788C68.5881 32.4262 68.7638 31.7994 68.7746 31.1591C68.7746 28.9965 66.8853 27.4162 64.295 27.4162H57.6943V42.0315H64.4316C67.123 42.0315 69.1846 40.2491 69.1846 37.8727C69.1992 37.1249 68.995 36.3891 68.597 35.7558C68.1991 35.1225 67.6248 34.6193 66.9447 34.308L66.9269 34.3139ZM64.9544 31.8245C64.9604 32.0008 64.9286 32.1764 64.8611 32.3394C64.7936 32.5024 64.692 32.649 64.5631 32.7695C64.4342 32.8899 64.2811 32.9814 64.1139 33.0377C63.9467 33.094 63.7694 33.1139 63.5939 33.0959H61.5799V30.5531H63.6117C63.7874 30.5342 63.9651 30.5534 64.1328 30.6093C64.3004 30.6653 64.454 30.7567 64.5831 30.8773C64.7122 30.998 64.8138 31.1451 64.881 31.3085C64.9481 31.472 64.9793 31.6479 64.9723 31.8245H64.9544ZM63.7662 38.7222H61.5799V36.0665H63.7662C63.9481 36.0544 64.1305 36.0797 64.3021 36.1409C64.4738 36.2021 64.6311 36.2979 64.7642 36.4224C64.8973 36.5469 65.0034 36.6974 65.0759 36.8646C65.1485 37.0318 65.1859 37.2121 65.1859 37.3944C65.1859 37.5766 65.1485 37.7569 65.0759 37.9241C65.0034 38.0913 64.8973 38.2418 64.7642 38.3663C64.6311 38.4908 64.4738 38.5867 64.3021 38.6479C64.1305 38.7091 63.9481 38.7344 63.7662 38.7222ZM77.4309 30.6957C76.8479 30.6568 76.2638 30.7547 75.7254 30.9817C75.1869 31.2086 74.7089 31.5583 74.3296 32.0028L73.7355 30.7551H71.0857V42.0433H74.9653V36.2982C74.9653 34.8605 75.5594 34.2545 76.914 34.2545H78.4231V30.6898L77.4309 30.6957ZM79.95 29.3471H83.7701V26.0557H79.95V29.3471ZM79.9203 42.0315H83.7998V30.7433H79.9203V42.0315ZM97.7022 42.0315L93.8345 36.1319L97.3457 30.7551H92.9849L90.2995 35.1754V26.7151H86.4199V42.0612H90.2995V37.3082L93.1215 42.0612L97.7022 42.0315ZM111.961 30.4284C111.301 30.427 110.65 30.573 110.053 30.8557C109.457 31.1384 108.932 31.5505 108.515 32.0622C108.16 31.5384 107.679 31.1121 107.117 30.8225C106.554 30.5328 105.928 30.3892 105.295 30.4046C104.667 30.4085 104.048 30.5487 103.48 30.8154C102.911 31.0821 102.408 31.469 102.004 31.9493L101.457 30.7314H98.7241V42.0196H102.574V35.8467C102.574 34.4505 103.168 33.696 104.196 33.696C105.004 33.696 105.432 34.2901 105.432 35.4427V42.0315H109.21V35.8527C109.21 34.4327 109.757 33.696 110.826 33.696C111.652 33.696 112.092 34.2901 112.092 35.4427V42.0315H115.971V34.9615C115.971 32.3117 114.367 30.4284 111.955 30.4284H111.961ZM123.962 42.3998C127.622 42.3998 130.278 39.8748 130.278 36.3933C130.278 32.9118 127.622 30.3868 123.962 30.3868C120.302 30.3868 117.641 32.8999 117.641 36.3933C117.641 39.8867 120.273 42.3998 123.962 42.3998ZM123.962 38.9124C123.461 38.9301 122.965 38.7976 122.539 38.5318C122.113 38.266 121.777 37.8791 121.572 37.4207C121.368 36.9622 121.305 36.4531 121.392 35.9588C121.479 35.4644 121.712 35.0073 122.06 34.646C122.409 34.2847 122.857 34.0358 123.348 33.9312C123.839 33.8265 124.35 33.8709 124.815 34.0587C125.281 34.2465 125.68 34.569 125.961 34.985C126.242 35.4009 126.392 35.8913 126.392 36.3933C126.412 36.7217 126.363 37.0507 126.249 37.3593C126.136 37.668 125.959 37.9497 125.73 38.1865C125.502 38.4233 125.227 38.6101 124.922 38.735C124.618 38.86 124.291 38.9204 123.962 38.9124Z" fill="black"/>
<defs>
<linearGradient id="paint0_linear" x1="18.9695" y1="66.9935" x2="18.9695" y2="0.0119852" gradientUnits="userSpaceOnUse">
<stop offset="0.09" stop-color="#D31F3C"/>
<stop offset="1" stop-color="#FF4050"/>
</linearGradient>
</defs>
</svg>
