<svg width="1440" height="491" viewBox="0 0 1440 491" fill="none" xmlns="http://www.w3.org/2000/svg">
<rect width="1440" height="491" fill="#FFEBEB"/>
<mask id="mask0" mask-type="alpha" maskUnits="userSpaceOnUse" x="0" y="0" width="1440" height="491">
<rect width="1440" height="491" fill="#FFEBEB"/>
</mask>
<g mask="url(#mask0)">
<path opacity="0.3" fill-rule="evenodd" clip-rule="evenodd" d="M779 857.599C1106.5 857.599 1372 588.279 1372 256.056C1372 -76.1665 1106.5 -345.486 779 -345.486C451.495 -345.486 186 -76.1665 186 256.056C186 588.279 451.495 857.599 779 857.599ZM779 654.718C561.952 654.718 386 476.231 386 256.056C386 35.8817 561.952 -142.605 779 -142.605C996.048 -142.605 1172 35.8817 1172 256.056C1172 476.231 996.048 654.718 779 654.718Z" fill="url(#paint0_linear)"/>
<path fill-rule="evenodd" clip-rule="evenodd" d="M43.2351 435C45.0218 435 46.4702 436.448 46.4702 438.235C46.4702 440.022 45.0218 441.47 43.2351 441.47C41.4484 441.47 40 440.022 40 438.235C40 436.448 41.4484 435 43.2351 435ZM63.7279 438.235C63.7279 436.448 62.2795 435 60.4928 435C58.7061 435 57.2577 436.448 57.2577 438.235C57.2577 440.022 58.7061 441.47 60.4928 441.47C62.2795 441.47 63.7279 440.022 63.7279 438.235ZM77.7395 435C79.5262 435 80.9746 436.448 80.9746 438.235C80.9746 440.022 79.5262 441.47 77.7395 441.47C75.9528 441.47 74.5044 440.022 74.5044 438.235C74.5044 436.448 75.9528 435 77.7395 435ZM98.2323 438.235C98.2323 436.448 96.7839 435 94.9972 435C93.2105 435 91.7621 436.448 91.7621 438.235C91.7621 440.022 93.2105 441.47 94.9972 441.47C96.7839 441.47 98.2323 440.022 98.2323 438.235ZM112.244 435C114.031 435 115.479 436.448 115.479 438.235C115.479 440.022 114.031 441.47 112.244 441.47C110.457 441.47 109.009 440.022 109.009 438.235C109.009 436.448 110.457 435 112.244 435ZM132.742 438.235C132.742 436.448 131.294 435 129.507 435C127.72 435 126.272 436.448 126.272 438.235C126.272 440.022 127.72 441.47 129.507 441.47C131.294 441.47 132.742 440.022 132.742 438.235ZM146.765 504.009C148.552 504.009 150 505.457 150 507.244C150 509.031 148.552 510.479 146.765 510.479C144.978 510.479 143.53 509.031 143.53 507.244C143.53 505.457 144.978 504.009 146.765 504.009ZM150 489.986C150 488.199 148.552 486.751 146.765 486.751C144.978 486.751 143.53 488.199 143.53 489.986C143.53 491.773 144.978 493.221 146.765 493.221C148.552 493.221 150 491.773 150 489.986ZM146.765 469.504C148.552 469.504 150 470.953 150 472.74C150 474.526 148.552 475.975 146.765 475.975C144.978 475.975 143.53 474.526 143.53 472.74C143.53 470.953 144.978 469.504 146.765 469.504ZM150 455.482C150 453.695 148.552 452.247 146.765 452.247C144.978 452.247 143.53 453.695 143.53 455.482C143.53 457.268 144.978 458.717 146.765 458.717C148.552 458.717 150 457.268 150 455.482ZM150 438.235C150 436.448 148.552 435 146.765 435C144.978 435 143.53 436.448 143.53 438.235C143.53 440.022 144.978 441.47 146.765 441.47C148.552 441.47 150 440.022 150 438.235ZM129.507 452.247C131.294 452.247 132.742 453.695 132.742 455.482C132.742 457.268 131.294 458.717 129.507 458.717C127.72 458.717 126.272 457.268 126.272 455.482C126.272 453.695 127.72 452.247 129.507 452.247ZM132.742 472.74C132.742 470.953 131.294 469.504 129.507 469.504C127.72 469.504 126.272 470.953 126.272 472.74C126.272 474.526 127.72 475.975 129.507 475.975C131.294 475.975 132.742 474.526 132.742 472.74ZM129.507 486.751C131.294 486.751 132.742 488.199 132.742 489.986C132.742 491.773 131.294 493.221 129.507 493.221C127.72 493.221 126.272 491.773 126.272 489.986C126.272 488.199 127.72 486.751 129.507 486.751ZM132.742 507.244C132.742 505.457 131.294 504.009 129.507 504.009C127.72 504.009 126.272 505.457 126.272 507.244C126.272 509.031 127.72 510.479 129.507 510.479C131.294 510.479 132.742 509.031 132.742 507.244ZM115.479 455.482C115.479 453.695 114.031 452.247 112.244 452.247C110.457 452.247 109.009 453.695 109.009 455.482C109.009 457.268 110.457 458.717 112.244 458.717C114.031 458.717 115.479 457.268 115.479 455.482ZM112.244 469.504C114.031 469.504 115.479 470.953 115.479 472.74C115.479 474.526 114.031 475.975 112.244 475.975C110.457 475.975 109.009 474.526 109.009 472.74C109.009 470.953 110.457 469.504 112.244 469.504ZM115.479 489.986C115.479 488.199 114.031 486.751 112.244 486.751C110.457 486.751 109.009 488.199 109.009 489.986C109.009 491.773 110.457 493.221 112.244 493.221C114.031 493.221 115.479 491.773 115.479 489.986ZM112.244 504.009C114.031 504.009 115.479 505.457 115.479 507.244C115.479 509.031 114.031 510.479 112.244 510.479C110.457 510.479 109.009 509.031 109.009 507.244C109.009 505.457 110.457 504.009 112.244 504.009ZM94.9972 452.247C96.7839 452.247 98.2323 453.695 98.2323 455.482C98.2323 457.268 96.7839 458.717 94.9972 458.717C93.2105 458.717 91.7621 457.268 91.7621 455.482C91.7621 453.695 93.2105 452.247 94.9972 452.247ZM98.2323 472.74C98.2323 470.953 96.7839 469.504 94.9972 469.504C93.2105 469.504 91.7621 470.953 91.7621 472.74C91.7621 474.526 93.2105 475.975 94.9972 475.975C96.7839 475.975 98.2323 474.526 98.2323 472.74ZM94.9972 486.751C96.7839 486.751 98.2323 488.199 98.2323 489.986C98.2323 491.773 96.7839 493.221 94.9972 493.221C93.2105 493.221 91.7621 491.773 91.7621 489.986C91.7621 488.199 93.2105 486.751 94.9972 486.751ZM98.2323 507.244C98.2323 505.457 96.7839 504.009 94.9972 504.009C93.2105 504.009 91.7621 505.457 91.7621 507.244C91.7621 509.031 93.2105 510.479 94.9972 510.479C96.7839 510.479 98.2323 509.031 98.2323 507.244ZM80.9746 455.482C80.9746 453.695 79.5262 452.247 77.7395 452.247C75.9528 452.247 74.5044 453.695 74.5044 455.482C74.5044 457.268 75.9528 458.717 77.7395 458.717C79.5262 458.717 80.9746 457.268 80.9746 455.482ZM77.7395 469.504C79.5262 469.504 80.9746 470.953 80.9746 472.74C80.9746 474.526 79.5262 475.975 77.7395 475.975C75.9528 475.975 74.5044 474.526 74.5044 472.74C74.5044 470.953 75.9528 469.504 77.7395 469.504ZM80.9746 489.986C80.9746 488.199 79.5262 486.751 77.7395 486.751C75.9528 486.751 74.5044 488.199 74.5044 489.986C74.5044 491.773 75.9528 493.221 77.7395 493.221C79.5262 493.221 80.9746 491.773 80.9746 489.986ZM77.7395 504.009C79.5262 504.009 80.9746 505.457 80.9746 507.244C80.9746 509.031 79.5262 510.479 77.7395 510.479C75.9528 510.479 74.5044 509.031 74.5044 507.244C74.5044 505.457 75.9528 504.009 77.7395 504.009ZM60.4928 452.247C62.2795 452.247 63.7279 453.695 63.7279 455.482C63.7279 457.268 62.2795 458.717 60.4928 458.717C58.7061 458.717 57.2577 457.268 57.2577 455.482C57.2577 453.695 58.7061 452.247 60.4928 452.247ZM63.7279 472.74C63.7279 470.953 62.2795 469.504 60.4928 469.504C58.7061 469.504 57.2577 470.953 57.2577 472.74C57.2577 474.526 58.7061 475.975 60.4928 475.975C62.2795 475.975 63.7279 474.526 63.7279 472.74ZM60.4928 486.751C62.2795 486.751 63.7279 488.199 63.7279 489.986C63.7279 491.773 62.2795 493.221 60.4928 493.221C58.7061 493.221 57.2577 491.773 57.2577 489.986C57.2577 488.199 58.7061 486.751 60.4928 486.751ZM63.7279 507.244C63.7279 505.457 62.2795 504.009 60.4928 504.009C58.7061 504.009 57.2577 505.457 57.2577 507.244C57.2577 509.031 58.7061 510.479 60.4928 510.479C62.2795 510.479 63.7279 509.031 63.7279 507.244ZM46.4702 455.482C46.4702 453.695 45.0218 452.247 43.2351 452.247C41.4484 452.247 40 453.695 40 455.482C40 457.268 41.4484 458.717 43.2351 458.717C45.0218 458.717 46.4702 457.268 46.4702 455.482ZM43.2351 469.504C45.0218 469.504 46.4702 470.953 46.4702 472.74C46.4702 474.526 45.0218 475.975 43.2351 475.975C41.4484 475.975 40 474.526 40 472.74C40 470.953 41.4484 469.504 43.2351 469.504ZM46.4702 489.986C46.4702 488.199 45.0218 486.751 43.2351 486.751C41.4484 486.751 40 488.199 40 489.986C40 491.773 41.4484 493.221 43.2351 493.221C45.0218 493.221 46.4702 491.773 46.4702 489.986ZM43.2351 504.009C45.0218 504.009 46.4702 505.457 46.4702 507.244C46.4702 509.031 45.0218 510.479 43.2351 510.479C41.4484 510.479 40 509.031 40 507.244C40 505.457 41.4484 504.009 43.2351 504.009Z" fill="#EB3349"/>
<path fill-rule="evenodd" clip-rule="evenodd" d="M1388.24 34C1390.02 34 1391.47 35.4484 1391.47 37.2351C1391.47 39.0218 1390.02 40.4702 1388.24 40.4702C1386.45 40.4702 1385 39.0218 1385 37.2351C1385 35.4484 1386.45 34 1388.24 34ZM1408.73 37.2351C1408.73 35.4484 1407.28 34 1405.49 34C1403.71 34 1402.26 35.4484 1402.26 37.2351C1402.26 39.0218 1403.71 40.4702 1405.49 40.4702C1407.28 40.4702 1408.73 39.0218 1408.73 37.2351ZM1422.74 34C1424.53 34 1425.97 35.4484 1425.97 37.2351C1425.97 39.0218 1424.53 40.4702 1422.74 40.4702C1420.95 40.4702 1419.5 39.0218 1419.5 37.2351C1419.5 35.4484 1420.95 34 1422.74 34ZM1443.23 37.2351C1443.23 35.4484 1441.78 34 1440 34C1438.21 34 1436.76 35.4484 1436.76 37.2351C1436.76 39.0218 1438.21 40.4702 1440 40.4702C1441.78 40.4702 1443.23 39.0218 1443.23 37.2351ZM1457.24 34C1459.03 34 1460.48 35.4484 1460.48 37.2351C1460.48 39.0218 1459.03 40.4702 1457.24 40.4702C1455.46 40.4702 1454.01 39.0218 1454.01 37.2351C1454.01 35.4484 1455.46 34 1457.24 34ZM1477.74 37.2351C1477.74 35.4484 1476.29 34 1474.51 34C1472.72 34 1471.27 35.4484 1471.27 37.2351C1471.27 39.0218 1472.72 40.4702 1474.51 40.4702C1476.29 40.4702 1477.74 39.0218 1477.74 37.2351ZM1491.76 103.009C1493.55 103.009 1495 104.457 1495 106.244C1495 108.031 1493.55 109.479 1491.76 109.479C1489.98 109.479 1488.53 108.031 1488.53 106.244C1488.53 104.457 1489.98 103.009 1491.76 103.009ZM1495 88.9862C1495 87.1995 1493.55 85.7511 1491.76 85.7511C1489.98 85.7511 1488.53 87.1995 1488.53 88.9862C1488.53 90.7729 1489.98 92.2213 1491.76 92.2213C1493.55 92.2213 1495 90.7729 1495 88.9862ZM1491.76 68.5044C1493.55 68.5044 1495 69.9529 1495 71.7396C1495 73.5263 1493.55 74.9747 1491.76 74.9747C1489.98 74.9747 1488.53 73.5263 1488.53 71.7396C1488.53 69.9529 1489.98 68.5044 1491.76 68.5044ZM1495 54.4817C1495 52.695 1493.55 51.2466 1491.76 51.2466C1489.98 51.2466 1488.53 52.695 1488.53 54.4817C1488.53 56.2684 1489.98 57.7168 1491.76 57.7168C1493.55 57.7168 1495 56.2684 1495 54.4817ZM1495 37.2351C1495 35.4484 1493.55 34 1491.76 34C1489.98 34 1488.53 35.4484 1488.53 37.2351C1488.53 39.0218 1489.98 40.4702 1491.76 40.4702C1493.55 40.4702 1495 39.0218 1495 37.2351ZM1474.51 51.2466C1476.29 51.2466 1477.74 52.695 1477.74 54.4817C1477.74 56.2684 1476.29 57.7168 1474.51 57.7168C1472.72 57.7168 1471.27 56.2684 1471.27 54.4817C1471.27 52.695 1472.72 51.2466 1474.51 51.2466ZM1477.74 71.7396C1477.74 69.9529 1476.29 68.5044 1474.51 68.5044C1472.72 68.5044 1471.27 69.9529 1471.27 71.7396C1471.27 73.5263 1472.72 74.9747 1474.51 74.9747C1476.29 74.9747 1477.74 73.5263 1477.74 71.7396ZM1474.51 85.7511C1476.29 85.7511 1477.74 87.1995 1477.74 88.9862C1477.74 90.7729 1476.29 92.2213 1474.51 92.2213C1472.72 92.2213 1471.27 90.7729 1471.27 88.9862C1471.27 87.1995 1472.72 85.7511 1474.51 85.7511ZM1477.74 106.244C1477.74 104.457 1476.29 103.009 1474.51 103.009C1472.72 103.009 1471.27 104.457 1471.27 106.244C1471.27 108.031 1472.72 109.479 1474.51 109.479C1476.29 109.479 1477.74 108.031 1477.74 106.244ZM1460.48 54.4817C1460.48 52.695 1459.03 51.2466 1457.24 51.2466C1455.46 51.2466 1454.01 52.695 1454.01 54.4817C1454.01 56.2684 1455.46 57.7168 1457.24 57.7168C1459.03 57.7168 1460.48 56.2684 1460.48 54.4817ZM1457.24 68.5044C1459.03 68.5044 1460.48 69.9529 1460.48 71.7396C1460.48 73.5263 1459.03 74.9747 1457.24 74.9747C1455.46 74.9747 1454.01 73.5263 1454.01 71.7396C1454.01 69.9529 1455.46 68.5044 1457.24 68.5044ZM1460.48 88.9862C1460.48 87.1995 1459.03 85.7511 1457.24 85.7511C1455.46 85.7511 1454.01 87.1995 1454.01 88.9862C1454.01 90.7729 1455.46 92.2213 1457.24 92.2213C1459.03 92.2213 1460.48 90.7729 1460.48 88.9862ZM1457.24 103.009C1459.03 103.009 1460.48 104.457 1460.48 106.244C1460.48 108.031 1459.03 109.479 1457.24 109.479C1455.46 109.479 1454.01 108.031 1454.01 106.244C1454.01 104.457 1455.46 103.009 1457.24 103.009ZM1440 51.2466C1441.78 51.2466 1443.23 52.695 1443.23 54.4817C1443.23 56.2684 1441.78 57.7168 1440 57.7168C1438.21 57.7168 1436.76 56.2684 1436.76 54.4817C1436.76 52.695 1438.21 51.2466 1440 51.2466ZM1443.23 71.7396C1443.23 69.9529 1441.78 68.5044 1440 68.5044C1438.21 68.5044 1436.76 69.9529 1436.76 71.7396C1436.76 73.5263 1438.21 74.9747 1440 74.9747C1441.78 74.9747 1443.23 73.5263 1443.23 71.7396ZM1440 85.7511C1441.78 85.7511 1443.23 87.1995 1443.23 88.9862C1443.23 90.7729 1441.78 92.2213 1440 92.2213C1438.21 92.2213 1436.76 90.7729 1436.76 88.9862C1436.76 87.1995 1438.21 85.7511 1440 85.7511ZM1443.23 106.244C1443.23 104.457 1441.78 103.009 1440 103.009C1438.21 103.009 1436.76 104.457 1436.76 106.244C1436.76 108.031 1438.21 109.479 1440 109.479C1441.78 109.479 1443.23 108.031 1443.23 106.244ZM1425.97 54.4817C1425.97 52.695 1424.53 51.2466 1422.74 51.2466C1420.95 51.2466 1419.5 52.695 1419.5 54.4817C1419.5 56.2684 1420.95 57.7168 1422.74 57.7168C1424.53 57.7168 1425.97 56.2684 1425.97 54.4817ZM1422.74 68.5044C1424.53 68.5044 1425.97 69.9529 1425.97 71.7396C1425.97 73.5263 1424.53 74.9747 1422.74 74.9747C1420.95 74.9747 1419.5 73.5263 1419.5 71.7396C1419.5 69.9529 1420.95 68.5044 1422.74 68.5044ZM1425.97 88.9862C1425.97 87.1995 1424.53 85.7511 1422.74 85.7511C1420.95 85.7511 1419.5 87.1995 1419.5 88.9862C1419.5 90.7729 1420.95 92.2213 1422.74 92.2213C1424.53 92.2213 1425.97 90.7729 1425.97 88.9862ZM1422.74 103.009C1424.53 103.009 1425.97 104.457 1425.97 106.244C1425.97 108.031 1424.53 109.479 1422.74 109.479C1420.95 109.479 1419.5 108.031 1419.5 106.244C1419.5 104.457 1420.95 103.009 1422.74 103.009ZM1405.49 51.2466C1407.28 51.2466 1408.73 52.695 1408.73 54.4817C1408.73 56.2684 1407.28 57.7168 1405.49 57.7168C1403.71 57.7168 1402.26 56.2684 1402.26 54.4817C1402.26 52.695 1403.71 51.2466 1405.49 51.2466ZM1408.73 71.7396C1408.73 69.9529 1407.28 68.5044 1405.49 68.5044C1403.71 68.5044 1402.26 69.9529 1402.26 71.7396C1402.26 73.5263 1403.71 74.9747 1405.49 74.9747C1407.28 74.9747 1408.73 73.5263 1408.73 71.7396ZM1405.49 85.7511C1407.28 85.7511 1408.73 87.1995 1408.73 88.9862C1408.73 90.7729 1407.28 92.2213 1405.49 92.2213C1403.71 92.2213 1402.26 90.7729 1402.26 88.9862C1402.26 87.1995 1403.71 85.7511 1405.49 85.7511ZM1408.73 106.244C1408.73 104.457 1407.28 103.009 1405.49 103.009C1403.71 103.009 1402.26 104.457 1402.26 106.244C1402.26 108.031 1403.71 109.479 1405.49 109.479C1407.28 109.479 1408.73 108.031 1408.73 106.244ZM1391.47 54.4817C1391.47 52.695 1390.02 51.2466 1388.24 51.2466C1386.45 51.2466 1385 52.695 1385 54.4817C1385 56.2684 1386.45 57.7168 1388.24 57.7168C1390.02 57.7168 1391.47 56.2684 1391.47 54.4817ZM1388.24 68.5044C1390.02 68.5044 1391.47 69.9529 1391.47 71.7396C1391.47 73.5263 1390.02 74.9747 1388.24 74.9747C1386.45 74.9747 1385 73.5263 1385 71.7396C1385 69.9529 1386.45 68.5044 1388.24 68.5044ZM1391.47 88.9862C1391.47 87.1995 1390.02 85.7511 1388.24 85.7511C1386.45 85.7511 1385 87.1995 1385 88.9862C1385 90.7729 1386.45 92.2213 1388.24 92.2213C1390.02 92.2213 1391.47 90.7729 1391.47 88.9862ZM1388.24 103.009C1390.02 103.009 1391.47 104.457 1391.47 106.244C1391.47 108.031 1390.02 109.479 1388.24 109.479C1386.45 109.479 1385 108.031 1385 106.244C1385 104.457 1386.45 103.009 1388.24 103.009Z" fill="#EB3349"/>
</g>
<defs>
<linearGradient id="paint0_linear" x1="1372" y1="-343.883" x2="189.162" y2="-343.883" gradientUnits="userSpaceOnUse">
<stop stop-color="white"/>
<stop offset="1" stop-color="white" stop-opacity="0.01"/>
</linearGradient>
</defs>
</svg>
